<svg xmlns="http://www.w3.org/2000/svg" width="34" height="32" viewBox="0 0 34 32">
  <defs>
    <style>
      .cls-1 {
        fill: #fff;
        fill-rule: evenodd;
      }
    </style>
  </defs>
  <path id="Icon_" data-name="Icon " class="cls-1" d="M658.005,4325.23c1.736-.1,3.476-0.06,5.216-0.07,1.82,4.33,3.342,8.78,5.05,13.16,5.616-.01,11.232-0.02,16.848.01,1.166-3.54,2.047-7.16,3.289-10.67l0.934,0.04c-0.164,1.98-1,3.82-1.5,5.73-0.645,1.98-1.063,4.03-1.891,5.93-6.163.27-12.349-.01-18.521,0.14-1.647-4.41-3.284-8.82-5-13.21-1.456.02-2.911,0.04-4.361-.06C658.054,4325.98,658.019,4325.48,658.005,4325.23Zm11.455,16.42a2.81,2.81,0,1,1,0,5.02A2.892,2.892,0,0,1,669.46,4341.65Zm0.4,1.16a1.628,1.628,0,0,0-.307,2.45A1.607,1.607,0,1,0,669.86,4342.81Zm11.984-1.33a2.793,2.793,0,1,1-1.584,4.05A2.835,2.835,0,0,1,681.844,4341.48Zm0.031,1.28a1.609,1.609,0,0,0-.325,2.52,1.588,1.588,0,0,0,2.741-1.16A1.6,1.6,0,0,0,681.875,4342.76Zm6.627-22.56a3.416,3.416,0,0,1,.9-1.81,13.093,13.093,0,0,1,.691,1.8c0.635,0.03,1.27.07,1.9,0.15-0.13.74-.9,1-1.388,1.46a15.434,15.434,0,0,1,.492,1.89,3.251,3.251,0,0,1-1.8-.93c-0.566.32-1.042,1.01-1.751,0.88a8.665,8.665,0,0,1,.432-1.85c-0.409-.46-1.443-0.72-1.275-1.45A10.79,10.79,0,0,1,688.5,4320.2Zm0.226,0.62c-0.3.02-.61,0.03-0.915,0.04a3.452,3.452,0,0,1,.825.77c-0.062.33-.159,0.65-0.252,0.97,0.27-.16.531-0.34,0.815-0.48a2.271,2.271,0,0,1,1,.47,9.973,9.973,0,0,1-.245-0.97,3.772,3.772,0,0,1,.815-0.77,2.257,2.257,0,0,1-1.129-.15,7.544,7.544,0,0,1-.312-0.81A2.18,2.18,0,0,1,688.728,4320.82Zm-24.22-3.56a3.382,3.382,0,0,1,.9-1.81,12.171,12.171,0,0,1,.69,1.8c0.635,0.03,1.27.07,1.9,0.15-0.129.74-.9,1-1.388,1.45a14.792,14.792,0,0,1,.492,1.9,3.339,3.339,0,0,1-1.8-.94c-0.566.33-1.041,1.02-1.75,0.89a8.663,8.663,0,0,1,.431-1.85c-0.408-.47-1.443-0.72-1.274-1.46A10.777,10.777,0,0,1,664.508,4317.26Zm0.226,0.62q-0.456.03-.914,0.03a3.683,3.683,0,0,1,.824.78c-0.062.33-.159,0.65-0.251,0.97a9.162,9.162,0,0,1,.815-0.49,2.4,2.4,0,0,1,1,.48c-0.09-.32-0.187-0.65-0.244-0.97a4.052,4.052,0,0,1,.815-0.78,2.147,2.147,0,0,1-1.129-.14q-0.177-.405-0.312-0.81A2.321,2.321,0,0,1,664.734,4317.88Zm13.337,8.4H670.5a0.455,0.455,0,0,1-.445-0.46,0.447,0.447,0,0,1,.445-0.45h7.576a0.455,0.455,0,0,1,.445.46A0.446,0.446,0,0,1,678.071,4326.28ZM678,4327.59h-5.723a0.447,0.447,0,0,1-.445-0.45,0.456,0.456,0,0,1,.445-0.46H678a0.455,0.455,0,0,1,.445.46A0.446,0.446,0,0,1,678,4327.59Zm0.075,1.31h-4.244a0.45,0.45,0,0,1,0-.9h4.244A0.45,0.45,0,0,1,678.071,4328.9Zm1.464-1.81a0.456,0.456,0,0,1-.445-0.46l-0.006-1.57a0.445,0.445,0,0,1,.444-0.45h0a0.448,0.448,0,0,1,.445.45l0.006,1.57a0.453,0.453,0,0,1-.443.46h0Zm0.084,1.81a0.448,0.448,0,0,1-.445-0.45l-0.006-1.21a0.447,0.447,0,0,1,.443-0.46,0.439,0.439,0,0,1,.447.45l0.006,1.22a0.444,0.444,0,0,1-.443.45h0Zm-0.081,2.08a0.448,0.448,0,0,1-.445-0.45l-0.006-1.22a0.444,0.444,0,0,1,.443-0.45h0a0.448,0.448,0,0,1,.445.45l0.006,1.21a0.453,0.453,0,0,1-.443.46h0Zm0,2.05a0.448,0.448,0,0,1-.445-0.45l-0.006-1.22a0.444,0.444,0,0,1,.443-0.45h0a0.448,0.448,0,0,1,.445.45l0.006,1.22a0.451,0.451,0,0,1-.443.45h0Zm-1.8-.61H670.8v-1.72h6.94v1.72Zm6.666,1.59h-16.54v-3.21l0.386-.05a1.837,1.837,0,0,0,0-3.67l-0.386-.06v-3.21H684.4v3.15l-0.4.04a1.84,1.84,0,0,0,0,3.68l0.4,0.05v3.28Zm-15.65-.9h14.76v-1.6a2.718,2.718,0,0,1,0-5.34v-1.45h-14.76v1.54a2.715,2.715,0,0,1,0,5.31v1.54Zm2.371-9.88a0.449,0.449,0,0,1-.385-0.22,0.457,0.457,0,0,1,.161-0.62l4.644-2.75a0.442,0.442,0,0,1,.609.16,0.457,0.457,0,0,1-.161.62l-4.644,2.75A0.456,0.456,0,0,1,671.125,4323.23Zm2.386,0.15a0.446,0.446,0,0,1-.382-0.22,0.458,0.458,0,0,1,.154-0.62l2.854-1.74a0.452,0.452,0,0,1,.456.78l-2.854,1.74A0.465,0.465,0,0,1,673.511,4323.38Zm2.454,0.12a0.446,0.446,0,0,1-.249-0.82l1.124-.78a0.449,0.449,0,0,1,.618.13,0.461,0.461,0,0,1-.121.63l-1.124.77A0.447,0.447,0,0,1,675.965,4323.5Zm1.247-3.46a0.447,0.447,0,0,1-.382-0.22l-0.288-.49a0.457,0.457,0,0,1,.152-0.62,0.442,0.442,0,0,1,.611.15l0.288,0.49a0.456,0.456,0,0,1-.152.62A0.4,0.4,0,0,1,677.212,4320.04Zm1.033,1.75a0.445,0.445,0,0,1-.381-0.22l-0.347-.59a0.456,0.456,0,0,1,.151-0.62,0.437,0.437,0,0,1,.611.16l0.346,0.58a0.456,0.456,0,0,1-.151.62A0.4,0.4,0,0,1,678.245,4321.79Zm0.906,1.55a0.447,0.447,0,0,1-.382-0.22l-0.244-.41a0.457,0.457,0,0,1,.151-0.62,0.442,0.442,0,0,1,.611.15l0.244,0.41a0.466,0.466,0,0,1-.151.63A0.472,0.472,0,0,1,679.151,4323.34Zm-12.049,1.75a0.446,0.446,0,0,1-.382-0.22l-0.73-1.24,14.2-8.63,1.584,2.7-0.318.24a1.984,1.984,0,0,0-.631,2.53,1.9,1.9,0,0,0,2.484.63l0.363-.17,1.007,1.72a0.453,0.453,0,0,1-.154.62,0.441,0.441,0,0,1-.61-0.15l-0.611-1.05a2.733,2.733,0,0,1-3.243-1.14,2.842,2.842,0,0,1,.553-3.44l-0.732-1.25-12.675,7.7,0.274,0.47a0.458,0.458,0,0,1-.154.62A0.465,0.465,0,0,1,667.1,4325.09Z" transform="translate(-658 -4315)"/>
</svg>
