<svg xmlns="http://www.w3.org/2000/svg" width="34" height="33" viewBox="0 0 34 33">
  <defs>
    <style>
      .cls-1 {
        fill: #fff;
        fill-rule: evenodd;
      }
    </style>
  </defs>
  <path id="Icon_" data-name="Icon " class="cls-1" d="M492.415,4315.66a6.816,6.816,0,0,1,1.361-.66,30.636,30.636,0,0,1,2.5,4.22c-1.059.85-2.19,1.91-2.115,3.39a3.623,3.623,0,0,0,4.655,3.52c0.48-.06,1.107-0.71,1.44-0.1a26.656,26.656,0,0,1,1.742,3.09c-0.12.15-.36,0.46-0.48,0.61a11.85,11.85,0,0,1-1.838-2.83,6.763,6.763,0,0,1-3,.27,4.839,4.839,0,0,1-3.323-3.2,4.686,4.686,0,0,1,1.71-5.02c-0.545-.92-1.073-1.85-1.606-2.77-8.1,4.58-16.225,9.13-24.313,13.73a6.133,6.133,0,0,1,1.112,2.34c-0.194,0-.589.02-0.784,0.03a15.558,15.558,0,0,1-1.432-2.42c-0.206-.39.3-0.6,0.565-0.77Q480.509,4322.37,492.415,4315.66Zm-8.259,13.29c1.163-.74,2.367-1.42,3.6-2.05,0.136,0.27.555,0.67,0.182,0.93a26.758,26.758,0,0,1-3.26,1.82C484.546,4329.47,484.287,4329.12,484.156,4328.95Zm0.753-5.88c0.512-.51,1.229.47,0.576,0.76-3.1,1.79-6.242,3.53-9.363,5.29-0.222-.22-0.451-0.41-0.659-0.63C478.525,4326.55,481.764,4324.88,484.909,4323.07Zm1.237,2.01a0.627,0.627,0,0,1,.881.44,9.8,9.8,0,0,1-2.2,1.41c-1.483.78-2.9,1.69-4.4,2.45a0.487,0.487,0,1,1-.216-0.95C482.177,4327.29,484.164,4326.19,486.146,4325.08Zm0.945-4.33c0.141-.04.427-0.11,0.571-0.15a6.85,6.85,0,0,1,1.28,2.3c-0.709.81-1.192-.34-1.5-0.87C487.286,4321.62,486.771,4321.18,487.091,4320.75Zm-15.758,10.32a0.471,0.471,0,0,1,.571-0.53q10.673-.015,21.344,0c2.675,0.04,5.359-.1,8.026.07,0,1.65.088,3.31-.064,4.95a4.685,4.685,0,0,0-2.715.91,4.492,4.492,0,0,0-1.342,2.15,3.747,3.747,0,0,0,2.63,4.07c0.483,0.16,1.147-.04,1.475.44a30.192,30.192,0,0,1-.1,4.84q-14.834.06-29.669,0a16.584,16.584,0,0,1,0-5.11,3.694,3.694,0,0,0,3.9-4.47,3.964,3.964,0,0,0-3.954-2.83A34.662,34.662,0,0,1,471.333,4331.07Zm0.995,0.41c0.006,1.08,0,2.16.014,3.24a4.551,4.551,0,0,1,4.038,5.27,4.7,4.7,0,0,1-4.054,3.82c0.008,1.07,0,2.15,0,3.22q13.989,0,27.978.01c0-1.08,0-2.16.008-3.24a5.115,5.115,0,0,1-2.7-1.28,4.539,4.539,0,0,1,2.686-7.8c0.021-1.08.011-2.16,0.013-3.25Q486.319,4331.485,472.328,4331.48Zm20.013,0.84a3.867,3.867,0,0,1,.741.22,9.049,9.049,0,0,1-.026,2.46c-0.235.07-.473,0.13-0.713,0.19A4.982,4.982,0,0,1,492.341,4332.32Zm-16.281.98c3.5-.1,7.011-0.02,10.516-0.04a29.913,29.913,0,0,1,3.281.06,7.477,7.477,0,0,1,.189.75,5.974,5.974,0,0,1-1.331.18c-3.742,0-7.485-.01-11.225,0a9.247,9.247,0,0,1-1.488-.12C476.018,4333.85,476.036,4333.57,476.06,4333.3Zm3.652,2.32c3.268-.04,6.538-0.03,9.806,0,0.51-.12.505,0.49,0.435,0.82a5.793,5.793,0,0,1-1.763.15c-2.775-.04-5.549.04-8.32-0.04A0.474,0.474,0,1,1,479.712,4335.62Zm12.618,0.5a0.5,0.5,0,0,1,.758.11,8.945,8.945,0,0,1-.046,2.5,0.583,0.583,0,0,1-.9-0.53A4.278,4.278,0,0,1,492.33,4336.12Zm-10.11,2.02a1.886,1.886,0,0,1,1.155-.19c2.179,0.05,4.367-.08,6.541.07a6.129,6.129,0,0,1,.029.86c-2.377.06-4.754,0.02-7.13,0.03A0.519,0.519,0,0,1,482.22,4338.14Zm10.121,1.68c0.1-.05.3-0.16,0.4-0.22,0.768,0.67.32,1.91,0.3,2.81-0.16.02-.48,0.07-0.64,0.09A3.314,3.314,0,0,1,492.341,4339.82Zm-3.5,2.94a26.394,26.394,0,0,0-3.329-.07c-2.8.02-5.594-.06-8.387,0.04a15.952,15.952,0,0,0,.006,2.65q5.862,0.1,11.729,0A13.024,13.024,0,0,0,488.843,4342.76Zm-0.9,1.74H478.1c0-.22,0-0.68,0-0.91h9.846v0.91Zm4.162-.76c0.2-.17.4-0.33,0.618-0.49,0.59,0.28.377,0.97,0.427,1.48-0.045.57,0.2,1.65-.76,1.41A5.729,5.729,0,0,1,492.1,4343.74Zm-3.194-19.86c0.158-.02.47-0.04,0.627-0.05a5.862,5.862,0,0,1,1.182,2.15c-0.1.14-.3,0.42-0.4,0.56A3.669,3.669,0,0,1,488.907,4323.88Zm1.761,3.55c0.109-.16.331-0.46,0.443-0.62,0.677,0.71,1.536,1.63,1.4,2.68-0.147.02-.443,0.07-0.59,0.09A8.337,8.337,0,0,1,490.668,4327.43Z" transform="translate(-468 -4315)"/>
</svg>
