<svg xmlns="http://www.w3.org/2000/svg" width="24" height="34.03" viewBox="0 0 24 34.03">
  <defs>
    <style>
      .cls-1 {
        fill: #fff;
        fill-rule: evenodd;
      }
    </style>
  </defs>
  <path id="Icon_" data-name="Icon " class="cls-1" d="M859.894,4316.7a3.24,3.24,0,0,1,3.129-2.7,10.86,10.86,0,0,1,2.77.73,4.258,4.258,0,0,0,1.963-.22,2.946,2.946,0,0,1-1.616,2.91,15.526,15.526,0,0,0,.25,2.97,2.711,2.711,0,0,1-1.16,1.73c1.029-.05,1.812-0.84,2.795-0.97a12.473,12.473,0,0,0,2.557,1.02c-0.028.16-.081,0.47-0.105,0.63-0.17.25-.325,0.49-0.484,0.74,0.447,0.04.9,0.06,1.35,0.14,0.966,1.13,2.1,2.37,2.151,3.96a4.566,4.566,0,0,1-1.949,4.18,6.688,6.688,0,0,1-3.392,1.06c0.025,0.17.069,0.5,0.091,0.67-0.327.16-.649,0.32-0.971,0.48,0.294,1.72.591,3.45,0.816,5.18a2.2,2.2,0,0,1-1.11,1.92c0.3,1.66.527,3.34,0.855,5a8.564,8.564,0,0,1,1.307.73,0.7,0.7,0,0,1-.55,1.11,26.519,26.519,0,0,1-2.82-.02c-0.639-.06-0.686-0.77-0.791-1.26-0.1-.05-0.314-0.17-0.419-0.23-0.361-1.14-.509-2.33-0.789-3.5-0.494.3-.985,0.59-1.477,0.88,0.009,0.69.061,1.89-.966,1.66a11.263,11.263,0,0,1-1.58-2.94c-0.261-.82.792-1.08,1.061-1.71a10.075,10.075,0,0,1,2.215-1.33c-0.2-1.79-1.107-3.43-1.063-5.25-0.161-.06-0.483-0.17-0.647-0.23,0-.75,0-1.49-0.017-2.24a3.647,3.647,0,0,1-2.523-3.27c-0.2-2.84,1.818-5.33,4.264-6.47a11.375,11.375,0,0,1-2.7-1.87l0.158-.85A4.18,4.18,0,0,1,859.894,4316.7Zm0.777-.67a3.268,3.268,0,0,0,.3,3.08c0.131-.01.392-0.03,0.522-0.03,0.014-.4.028-0.81,0.045-1.2a3.359,3.359,0,0,1-.68-1.53c0.136-.03.408-0.1,0.544-0.13,0.122,0.45.166,1.21,0.8,1.19,1.816,0.18,4.275-.05,5.047-2.04-1.285-.07-2.712-0.45-3.814.44-0.325-.57.388-0.8,0.677-1.17A2.952,2.952,0,0,0,860.671,4316.03Zm1.4,1.94c-0.017.47-.022,0.94-0.031,1.41a5.824,5.824,0,0,0-1.268.62,6.266,6.266,0,0,1,1.732,1.17,2.613,2.613,0,0,0,2.976-.01c0.655-.65.214-1.6,0.111-2.38l-0.772-.12c0.247-.17.5-0.34,0.75-0.5l0.05-.51A10.355,10.355,0,0,1,862.076,4317.97Zm5.119,4.04c0.02,0.46.092,0.91,0.15,1.37,0.347,0,.7.01,1.052,0.02,0.089-.49.183-0.98,0.281-1.46A1.311,1.311,0,0,0,867.2,4322.01Zm-2.809.67a0.377,0.377,0,0,0-.206-0.72C863.725,4322.06,863.964,4322.8,864.386,4322.68Zm-1.583-.02c0.3,0.48.622,0.94,0.961,1.39,0.127-.3.255-0.61,0.388-0.91A1.085,1.085,0,0,0,862.8,4322.66Zm2.946-.15a1.5,1.5,0,0,0,1.063,1c-0.05-.38-0.1-0.77-0.15-1.15C866.434,4322.4,865.976,4322.48,865.749,4322.51Zm3.37-.12c-0.061.37-.117,0.74-0.161,1.12a1.534,1.534,0,0,0,1-1.02C869.746,4322.47,869.327,4322.41,869.119,4322.39Zm-4.128.18c-0.472.21,0.053,1.02,0.447,0.74A0.543,0.543,0,0,0,864.991,4322.57Zm-3.359,1c0.361,0.17.724,0.34,1.093,0.5-0.063.3-.125,0.59-0.183,0.89,0.181,0.04.542,0.14,0.719,0.18l0.22-.47c-0.364-.53-0.728-1.07-1.086-1.61C862.134,4323.23,861.884,4323.4,861.632,4323.57Zm-0.506.43c-1.335,1.42-2.293,3.52-1.593,5.48a3.562,3.562,0,0,0,2.487,2c0.136-.31.278-0.61,0.417-0.92a3.352,3.352,0,0,1-1.58-1.24,2.213,2.213,0,0,1,1.283-3.21,7.061,7.061,0,0,0-.3,1.84c0.041,0.77-.256,1.85.727,2.08a5.546,5.546,0,0,1,.211-4.39c-0.294-.17-0.589-0.33-0.877-0.49,0.044-.2.133-0.62,0.175-0.83C861.759,4324.22,861.44,4324.11,861.126,4324Zm2.249,1.8a4.305,4.305,0,0,0-.205,4.1,1.72,1.72,0,0,1,1.665,1.73,6.76,6.76,0,0,0,5.966.01,4.086,4.086,0,0,0,2.152-3.99,5.138,5.138,0,0,0-1.066-2.55c-0.286.34-.511,1.18-1.1,0.88a1.416,1.416,0,0,1-.808-2.01l-1.2-.06a8.856,8.856,0,0,1,.872,2.02l-0.319.29c-0.469-.81-0.811-1.69-1.352-2.45-0.253.57-.5,1.13-0.786,1.68-0.5-.46-0.011-1.05.075-1.55A4.278,4.278,0,0,0,863.375,4325.8Zm7.571-1.79c-0.1.53-.686,1.24,0.036,1.58,0.144-.35.289-0.71,0.433-1.07C871.257,4324.35,871.1,4324.18,870.946,4324.01Zm-9.789,3.77c-0.219.21-.261,0.93,0.139,0.91C861.5,4328.47,861.551,4327.77,861.157,4327.78Zm1.571,3.71c0.542,0,1.1-.01,1.646-0.05A0.865,0.865,0,0,0,862.728,4331.49Zm-0.874.46v1.72a23.363,23.363,0,0,0,3.128.15q0.279-.645.556-1.29c-0.383-.18-0.764-0.35-1.139-0.52A19.656,19.656,0,0,1,861.854,4331.95Zm4.289,0.77c0.214,0.29.43,0.57,0.652,0.86a1.9,1.9,0,0,0,.994-0.65C867.239,4332.84,866.69,4332.78,866.143,4332.72Zm-0.347.56c-0.15.35-.3,0.71-0.439,1.06-0.963.03-1.926,0.01-2.887-.03a16.875,16.875,0,0,0,.739,3.46c0.574,2.75,1.2,5.5,1.754,8.26,0.763,0,1.53.01,2.3,0.01-0.322-1.88-.647-3.75-0.913-5.63-0.342-.01-0.678-0.02-1.011-0.02-0.006-.14-0.017-0.4-0.022-0.54h0.924a39.836,39.836,0,0,1-.663-4.64c-0.047-.4.322-0.43,0.6-0.52-0.158,1.99.48,3.92,0.73,5.87a1.909,1.909,0,0,0,.644-1.35c-0.213-1.65-.519-3.29-0.771-4.94C866.44,4333.95,866.115,4333.62,865.8,4333.28Zm-4.431,7.75c0.314,0.71.639,1.42,0.961,2.13,0.447-.25.891-0.51,1.338-0.77-0.186-.77-0.353-1.54-0.528-2.31C862.545,4340.4,861.956,4340.72,861.365,4341.03Zm-1.124,1.28a14.443,14.443,0,0,0,1.452,2.81,4.55,4.55,0,0,0-.889-3.42C860.663,4341.85,860.382,4342.16,860.241,4342.31Zm5.316,4.27c0.045,0.28.089,0.56,0.142,0.85,1.06,0.01,2.126.03,3.19-.04A4.047,4.047,0,0,0,865.557,4346.58Zm-2.5-28.03c0.463-.13.613,0.02,0.447,0.46C863.031,4319.14,862.881,4318.99,863.056,4318.55Zm9.8,1.17c1.39,1.23,2.762,2.47,4.144,3.7-0.738.84-1.468,1.69-2.221,2.52-1.341-1.31-2.881-2.42-4.092-3.86A17.286,17.286,0,0,0,872.859,4319.72Zm-1.4,2.47c1.078,1.01,2.194,1.98,3.3,2.96,0.489-.57.986-1.13,1.486-1.69-1.116-.97-2.205-1.97-3.312-2.96C872.442,4321.07,871.954,4321.63,871.456,4322.19Zm-8.245-2.17c0.389,0.15,1.308.17,1.05,0.83A0.977,0.977,0,0,1,863.211,4320.02ZM853,4323.75c1.641-.81,3.282-1.63,4.9-2.48,0.528,1,1,2.02,1.5,3.03-1.657.81-3.29,1.67-4.955,2.46C853.992,4325.75,853.5,4324.75,853,4323.75Zm2.871-.78c0.128,0.37.763,0.23,1.055,0.5a4.751,4.751,0,0,1,.05,1.3,8.246,8.246,0,0,0,1.721-.72c-0.347-.66-0.677-1.34-1-2.02A12.067,12.067,0,0,0,855.871,4322.97Zm-2.154,1.03c0.338,0.66.672,1.34,1,2.02a16.749,16.749,0,0,0,1.744-.88c0.452-.34-0.769-0.34-0.719-0.32-0.517-.42-0.267-1.01-0.295-1.56A8.233,8.233,0,0,0,853.717,4324Zm2.179-.21c-0.316.39,0.344,0.92,0.625,0.47C856.826,4323.86,856.171,4323.34,855.9,4323.79Zm16.921-.89c0.272-.46.605-1.16,1.271-0.92a0.887,0.887,0,0,1,.031,1.68C873.511,4323.92,873.144,4323.29,872.817,4322.9Zm0.783-.39a0.393,0.393,0,0,0,.483.62A0.393,0.393,0,0,0,873.6,4322.51Zm-6.569,4.15a7.01,7.01,0,0,1,1.139-.71,2.212,2.212,0,0,1,1.407,1.65c-0.616-.21-1.121-1.16-1.832-0.78a0.624,0.624,0,0,0-.061,1.19c0.655,0.24,1.571.24,1.8,1.07,0.291,0.98-.736,1.45-1.416,1.83-0.614-.42-1.413-0.81-1.349-1.7,0.386,0.27.732,0.6,1.135,0.85a0.827,0.827,0,0,0,1.13-.72c-0.142-.65-0.924-0.57-1.4-0.78A1.163,1.163,0,0,1,867.031,4326.66Zm-11.374,2.72c1.036,0.42,2.074.82,3.11,1.25-0.706,1.71-1.347,3.45-2.021,5.17-1.03-.42-2.069-0.83-3.1-1.24C854.339,4332.84,854.994,4331.11,855.657,4329.38Zm-0.322,2.26c0.181,0.12.364,0.25,0.55,0.37l0.067-.44a1.244,1.244,0,0,1,1.141,1.38c0.1-.1.305-0.28,0.408-0.37,0.136-.57.327-1.13,0.508-1.68-0.678-.27-1.352-0.53-2.019-0.82C855.777,4330.6,855.56,4331.12,855.335,4331.64Zm0.6,0.65c-0.153.49,0.045,0.74,0.558,0.6C856.621,4332.4,856.426,4332.15,855.932,4332.29Zm-1.01.3c-0.148.57-.339,1.13-0.517,1.69,0.675,0.26,1.349.53,2.016,0.82,0.208-.52.413-1.03,0.647-1.54-0.17-.14-0.339-0.27-0.506-0.4l-0.105.44a1.215,1.215,0,0,1-1.136-1.35C855.221,4332.33,855.022,4332.5,854.922,4332.59Z" transform="translate(-853 -4314)"/>
</svg>
