<svg xmlns="http://www.w3.org/2000/svg" width="48" height="60" viewBox="0 0 48 60">
  <defs>
    <style>
      .cls-1 {
        fill: #33b5f7;
        fill-rule: evenodd;
      }
    </style>
  </defs>
  <path id="Icon_" data-name="Icon " class="cls-1" d="M1102.79,3220.03a0.733,0.733,0,0,1,.87.38,21.69,21.69,0,0,0,8.79,8.51,26.2,26.2,0,0,0,13.82,3.16,0.717,0.717,0,0,1,.68.51,5.34,5.34,0,0,1,.03,1.2c0.01,4.11,0,8.23,0,12.34a50.31,50.31,0,0,1-.15,5.35,31.551,31.551,0,0,1-5.92,15.45,37.72,37.72,0,0,1-17.39,13,2.455,2.455,0,0,1-1.39-.12,27.988,27.988,0,0,1-5.68-2.66,37.874,37.874,0,0,1-13.52-13.62,30.192,30.192,0,0,1-3.61-10.75,76.382,76.382,0,0,1-.31-9.2c0.03-3.27,0-6.53.02-9.79a2.572,2.572,0,0,1,.17-1.51,1.452,1.452,0,0,1,1.27-.21,24.836,24.836,0,0,0,12.17-2.46,21.981,21.981,0,0,0,9.57-8.96A0.993,0.993,0,0,1,1102.79,3220.03Zm-7.47,9.72a25.927,25.927,0,0,1-14.88,3.73v12.78c0,1.36-.03,2.73.07,4.1,3.5,0,6.99-.01,10.48,0-0.01-1.93.01-3.87-.01-5.8a3.635,3.635,0,0,1,1.37-2.89,3.853,3.853,0,0,1,2.47-.8c-0.02-.75-0.01-1.5-0.01-2.25a7.683,7.683,0,0,1,2.34-5.48,8.656,8.656,0,0,1,5.45-2.32v-8.11A23.191,23.191,0,0,1,1095.32,3229.75Zm8.7-6.18c-0.02,2.07,0,4.15-.01,6.22a4.1,4.1,0,0,0,.09,1.21c0-.16,0-0.32-0.01-0.49l0.09,0.33,0.21-.3c-0.04.08-.1,0.24-0.13,0.32a7.884,7.884,0,0,1,6.69,5.96,16.228,16.228,0,0,1,.25,4.06,3.967,3.967,0,0,1,2.64.95,3.568,3.568,0,0,1,1.18,2.72c-0.01,1.98,0,3.95-.01,5.92h10.48c0.09-1.2.08-2.41,0.08-3.61v-13.35a27.615,27.615,0,0,1-12.39-2.64A24.516,24.516,0,0,1,1104.02,3223.57Zm-4.48,9.4a6.328,6.328,0,0,0-3.16,3.84,15.084,15.084,0,0,0-.27,4.08c4.6-.01,9.19,0,13.79,0-0.01-.71,0-1.43,0-2.14a6.7,6.7,0,0,0-2.48-5.16A7.3,7.3,0,0,0,1099.54,3232.97Zm-7.24,11.34c-0.04.92,0.01,1.84-.02,2.77,1.23,0.09,2.47,0,3.7.04a0.655,0.655,0,0,1,.63.58,0.645,0.645,0,0,1-.63.7c-1.23.02-2.46,0-3.69,0.01,0.02,2.7-.01,5.4,0,8.11,1.19,0.01,2.37.02,3.56,0a0.674,0.674,0,0,1,.74.51,0.639,0.639,0,0,1-.6.79c-1.24.02-2.47,0-3.7,0,0,1.06-.02,2.13.01,3.19a2.293,2.293,0,0,0,2.24,2.08c2.74,0.01,5.48,0,8.21,0a7.385,7.385,0,0,1,1.33,0h7.39a2.3,2.3,0,0,0,2.24-2.09c0.02-1.06.01-2.12,0-3.18-1.1.01-2.21,0-3.32,0.01a0.992,0.992,0,0,1-.83-0.23,0.643,0.643,0,0,1,.46-1.07c1.23-.01,2.47.01,3.7-0.01-0.01-1.84.02-3.69-.03-5.52,0.04-.87.04-1.74,0.01-2.6-1.22.01-2.45,0.02-3.68,0a0.638,0.638,0,0,1-.6-0.82,0.678,0.678,0,0,1,.73-0.46h3.56c0-.94.02-1.87,0-2.8a2.305,2.305,0,0,0-2.35-2.13c-5.62-.01-11.23,0-16.84,0A2.3,2.3,0,0,0,1092.3,3244.31Zm-11.65,7.46a30.538,30.538,0,0,0,7.44,16.64,37.022,37.022,0,0,0,14.63,10.1v-14.12c-2.73-.01-5.47,0-8.21-0.01a3.6,3.6,0,0,1-3.37-2.54,5.936,5.936,0,0,1-.15-1.78c-0.01-2.76.01-5.52-.01-8.28C1087.54,3251.76,1084.09,3251.76,1080.65,3251.77Zm34.37,0.12c-0.02,3,.01,6-0.01,9a3.578,3.578,0,0,1-2.56,3.35,7.956,7.956,0,0,1-2.18.14c-2.05.02-4.1-.02-6.15,0.02,0.04,4.59,0,9.17.03,13.76a41.2,41.2,0,0,0,6.21-3.25,34.868,34.868,0,0,0,9.42-8.86,30.361,30.361,0,0,0,5.57-14.16C1121.9,3251.87,1118.46,3251.88,1115.02,3251.89Zm-14.97-1.88a3.193,3.193,0,0,1,6.27.61,3.255,3.255,0,0,1-1.12,2.64c0.25,1.18.51,2.35,0.75,3.54a0.619,0.619,0,0,1-.52.82c-1.37.05-2.75,0.01-4.12,0.02a1.029,1.029,0,0,1-.88-0.24,1.1,1.1,0,0,1-.04-0.94c0.24-1.06.45-2.13,0.69-3.19A3.268,3.268,0,0,1,1100.05,3250.01Zm2.07-.78a1.869,1.869,0,0,0-.47,2.74c0.24,0.36.86,0.52,0.8,1.04-0.21,1.12-.48,2.23-0.71,3.34h2.8c-0.24-1.11-.5-2.21-0.71-3.32a0.812,0.812,0,0,1,.49-0.76,1.861,1.861,0,0,0,.43-2.44A1.894,1.894,0,0,0,1102.12,3249.23Z" transform="translate(-1079 -3220)"/>
</svg>
