<svg xmlns="http://www.w3.org/2000/svg" width="44.969" height="60" viewBox="0 0 44.969 60">
  <defs>
    <style>
      .cls-1 {
        fill: #33b5f7;
        fill-rule: evenodd;
      }
    </style>
  </defs>
  <path id="Icon_" data-name="Icon " class="cls-1" d="M530.725,3534.72a2.452,2.452,0,0,1,2.912.39c0.374-.18.75-0.35,1.129-0.53a1.406,1.406,0,0,1,.29.91c-0.278.24-.594,0.44-0.893,0.65a2.207,2.207,0,0,1-1.3,2.46c-1.216-.4.059-1.36,0.364-1.96-0.615.26-1.207,0.56-1.807,0.85a2.6,2.6,0,0,1-1.231,2.76,2.49,2.49,0,0,1-2.783-.55c-0.46.1-1.067,0.45-1.3-.18a1.628,1.628,0,0,1,.684-0.94,2.835,2.835,0,0,1,.347-1.76c0.376-.51,1.272-1.13,1.655-0.27-0.317.56-.762,1.04-1.085,1.61,0.735-.32,1.446-0.68,2.154-1.05A2.338,2.338,0,0,1,530.725,3534.72Zm0.006,1.83a13.987,13.987,0,0,0,1.921-.94,8.218,8.218,0,0,0-.983-0.13A1.726,1.726,0,0,0,530.731,3536.55Zm-2.389,2.64a1.721,1.721,0,0,0,1.5.01,3.911,3.911,0,0,0,.663-1.14A12.658,12.658,0,0,0,528.342,3539.19Zm-16.431-15.46c6.189-3.28,12.392-6.54,18.626-9.73,1.018,1.52,1.756,3.21,2.631,4.81,4.958-.91,9.893-1.97,14.863-2.81a2.326,2.326,0,0,1,.537,1.4q3.513,18.39,7.073,36.76a9.82,9.82,0,0,1,.341,2.51,16.812,16.812,0,0,1-2.811.65c-5.89,1.11-11.771,2.29-17.664,3.37-1.06.31-.836-1.2-1.093-1.82-1.225.65-2.434,1.32-3.7,1.89-0.379-.61-0.726-1.22-1.057-1.85a10.386,10.386,0,0,1-4.949,3.52q-0.336,1.35-.651,2.73c0.74,0.35,1.484.71,2.2,1.12-0.35,2.32-.7,4.64-1.09,6.95-0.1.29-.236,1.06-0.7,0.67-3.552-1.61-7.019-3.4-10.544-5.07a19.656,19.656,0,0,1-2.927-1.54c0.332-1.6.959-3.11,1.4-4.67a8.26,8.26,0,0,1,.98-2.47,15.082,15.082,0,0,1,1.8.74c0.337-1.75,1.26-3.45.911-5.26a30.484,30.484,0,0,1,.041-7.32c0.209-1.44-.188-3.1.792-4.34a17.651,17.651,0,0,1,3.453-2.79q-4.266-8.115-8.519-16.24C511.7,3524.52,511.233,3523.91,511.911,3523.73Zm0.926,0.73q7.191,13.65,14.334,27.33l1.009-.18c-4.145-7.92-8.318-15.83-12.434-23.76-0.373-.6.49-0.93,0.747-1.37,0.672-.66.194-1.63,0.194-2.43,0.983-.65,2.079-1.12,3.112-1.69,2.647-1.31,5.2-2.85,7.9-4.04,0.625,0.51,1.159,1.47,2.106,1.22,0.526,0,1.344-.49,1.544.28,3.163,5.99,6.294,12.01,9.445,18,1.613,3.17,3.375,6.26,4.892,9.47-0.346.45-.806,0.8-1.108,1.28-0.409.65,0.021,1.4,0.125,2.08-3.106,1.77-6.326,3.32-9.471,5.02a8.682,8.682,0,0,1-1.666.76,14.029,14.029,0,0,1-1.067-1.1,10.521,10.521,0,0,0-2.046,2.45,5.934,5.934,0,0,0,.654,1.58c5.792-2.99,11.556-6.04,17.339-9.05q-9.171-17.46-18.306-34.92C524.381,3518.43,518.6,3521.42,512.837,3524.46Zm20.86-4.65c0.254,0.49.508,0.98,0.768,1.47,3.127-.57,6.227-1.32,9.375-1.74a12.168,12.168,0,0,0,.947,1.47,3.355,3.355,0,0,0,1.933.41c0.9,3.86,1.523,7.79,2.317,11.68,1.189,6.34,2.5,12.65,3.62,18.99-0.636.51-1.729,0.75-1.8,1.72-0.188.43,0.105,1.29-.555,1.34-3.641.74-7.3,1.41-10.944,2.13a1.487,1.487,0,0,1-1.308-.31c-0.872.46-1.745,0.92-2.614,1.37,0.081,0.41.165,0.83,0.248,1.24q9.579-1.86,19.167-3.69-3.705-19.35-7.449-38.71C542.834,3518.05,538.27,3518.95,533.7,3519.81Zm-15.755,4.76a3.759,3.759,0,0,1-1.016,3.21q6.174,11.73,12.306,23.47a8.193,8.193,0,0,1,3.563-1.75,10.878,10.878,0,0,1,4.471.28,1.767,1.767,0,0,1,.212,3.12,40.308,40.308,0,0,0-4.059,1.77c0.138,0.16.278,0.32,0.418,0.49,3.187-1.63,6.332-3.33,9.519-4.96a3.636,3.636,0,0,1,1.016-3.21c-4.627-8.77-9.209-17.57-13.823-26.35a3.681,3.681,0,0,1-3.2-1.01C524.22,3521.3,521.072,3522.92,517.942,3524.57Zm17.042-2.31q2.455,4.68,4.9,9.36a7.833,7.833,0,0,1,4.316.37,6.835,6.835,0,0,1,4.217,5.78,7.1,7.1,0,0,1-2.267,5.83c1.24,2.35,2.5,4.69,3.683,7.07-3.193,2.01-6.688,3.5-9.949,5.39,3.237-.61,6.472-1.24,9.713-1.86a3.691,3.691,0,0,1,1.864-2.76q-2.783-14.43-5.568-28.87a3.817,3.817,0,0,1-2.772-1.87C540.411,3521.22,537.7,3521.75,534.984,3522.26Zm5.421,10.34c0.553,1.08,1.129,2.16,1.688,3.24a2.667,2.667,0,0,1,2.942,1.21c0.469-.01,1.359-0.36,1.4.38,0.113,0.64-.765.54-1.159,0.77a4.96,4.96,0,0,1-1,1.83c0.466,0.85.911,1.71,1.368,2.57A5.913,5.913,0,0,0,540.405,3532.6Zm2.351,4.29c-0.331.6,0.9,0.95,1,.32A0.635,0.635,0,0,0,542.756,3536.89Zm0.8,1.44c-0.2.48-.06,0.65,0.43,0.54Q544.286,3538.15,543.551,3538.33Zm-26.031,6.79a40.126,40.126,0,0,0-.379,4,37.865,37.865,0,0,0,.119,7.71,32.526,32.526,0,0,1-1.1,4.56c2.291,1.1,4.594,2.18,6.879,3.3a25.779,25.779,0,0,1,.824-3.11,10.71,10.71,0,0,0,3.313-1.7c1.843-1.4,2.652-3.7,4.42-5.17a13.325,13.325,0,0,1,4.642-2.46,1.188,1.188,0,0,0,1.03-.84,0.814,0.814,0,0,0-.812-0.72c-1.894-.37-4.089-0.43-5.675.84a7.342,7.342,0,0,1-6.114,1.15,4.8,4.8,0,0,1-3.483-4.48,5.806,5.806,0,0,1,1.028-3.54c-0.457-.83-0.9-1.67-1.33-2.51C519.71,3543.06,518.258,3543.78,517.52,3545.12Zm5.212,0.67a4.565,4.565,0,0,0,.021,4.08,4.107,4.107,0,0,0,3.211,2C524.9,3549.83,523.885,3547.77,522.732,3545.79Zm-10.5,21q5.981,2.895,11.953,5.81c0.275-1.92.618-3.83,0.875-5.75-3.718-1.78-7.44-3.55-11.15-5.34Q513.069,3564.15,512.228,3566.79Zm16.52-36.06a6.917,6.917,0,1,1-4.433,3.85A6.967,6.967,0,0,1,528.748,3530.73Zm0.639,0.95a5.888,5.888,0,0,0-4.062,3.33A5.8,5.8,0,1,0,529.387,3531.68Z" transform="translate(-511 -3514)"/>
</svg>
