<svg xmlns="http://www.w3.org/2000/svg" width="59.969" height="57" viewBox="0 0 59.969 57">
  <defs>
    <style>
      .cls-1 {
        fill: #33b5f7;
        fill-rule: evenodd;
      }
    </style>
  </defs>
  <path id="Icon_" data-name="Icon " class="cls-1" d="M824.294,3518.69a7.315,7.315,0,0,1,5.532-2.69c3.343,0.19,6.157,2.64,7.676,5.49-0.718,2.54-2.958,4.12-5.144,5.34,1.777-.04,3.55.23,5.329,0.09,0.344-.22.691-0.43,1.045-0.64,0.058,0.24.172,0.7,0.23,0.93,2.958,0.14,5.91.34,8.865,0.54,0.4,3.06-.069,6.14.02,9.21-0.323.56-.924,1.02-0.807,1.74,0.007,4.25-.083,8.5.11,12.75-0.045,2.17.1,4.35-.072,6.52a1.442,1.442,0,0,1-.732,1.16,91.879,91.879,0,0,0-15.053,13.86c-5.992-.2-11.953-0.94-17.921-1.43-6.563-.39-13.094-1.19-19.653-1.61-1.186-.15-2.388-0.2-3.56-0.44-0.021-3.5.072-6.99-.082-10.48-0.083-4.02-.011-8.04-0.354-12.05,0.065-.65-0.674-0.68-1.089-0.88-0.574-.07-0.561-0.75-0.6-1.18a49.627,49.627,0,0,1,.347-7.17c0.835-1.2,2.127-1.97,3.082-3.06-0.508-.41-1.017-0.8-1.529-1.2,0.072-.18.213-0.55,0.286-0.73,1.869-.27,4.25-0.12,5.425-1.92-0.818-1.41-2.137-3.12-1.292-4.79,1.309,0.89,2.535,2.16,4.188,2.32a13.96,13.96,0,0,0,2.031-1.51,10.179,10.179,0,0,1-3.725-3.32,2.1,2.1,0,0,1,.182-2.59c1.77-2.2,4.385-4.25,7.377-3.95,1.567-.11,2.876.94,3.927,1.97a60.988,60.988,0,0,1,4.732,6.23c2.071-.11,4.1.52,6.174,0.41C821.027,3523.39,822.377,3520.82,824.294,3518.69Zm-1.017,2.72c-1.9,2.91-4.442,5.66-5.129,9.16,5.088-4.47,10.675-8.64,17.261-10.57a7.921,7.921,0,0,0-6.277-3.2C826.548,3517.27,824.638,3519.28,823.277,3521.41Zm-24.813-.8a31.34,31.34,0,0,1,5.16,2.3,102.265,102.265,0,0,1,10.82,6.88,38.613,38.613,0,0,0-5.161-8.32c-1.209-1.5-2.46-3.29-4.5-3.62C802.343,3517.44,800.092,3518.94,798.464,3520.61Zm27.617,4.82a39.963,39.963,0,0,0-6.294,5.06,63.188,63.188,0,0,0,8.349-2.84,25.1,25.1,0,0,0,6.14-3.08c1.1-.9,2.408-2.12,2.051-3.71C832.592,3521.49,829.228,3523.42,826.081,3525.43Zm-28.531-3.96c-0.677,1.72,1.12,2.96,2.257,3.9,4.1,2.48,8.968,3.06,13.417,4.63a52.892,52.892,0,0,0-5.353-3.56,51.7,51.7,0,0,0-8.851-4.71A9.162,9.162,0,0,0,797.55,3521.47Zm16.076,4.72c0.605,1.1,1.209,2.21,1.728,3.36l1.966,0.06c0.453-1.07.962-2.12,1.5-3.15C817.093,3526.36,815.365,3526.17,813.626,3526.19Zm-14.152,2.74c3.944,0.68,7.909,1.66,11.939,1.45-3.357-.99-6.72-1.95-10.043-3.05C800.731,3527.86,800.092,3528.38,799.474,3528.93Zm30.015-.88c-1.573.67-3.2,1.2-4.765,1.9,2.147-.1,4.274-0.4,6.4-0.68a12.212,12.212,0,0,0,4.776-1.39C833.791,3527.67,831.475,3527,829.489,3528.05Zm-34.417-.2c0.375,1.48,1.491,2.5,2.354,3.66-1.718,1.25-3.859,1.62-5.862,2.18,4.048,2.46,9.04,2.24,13.582,1.81a25.152,25.152,0,0,0,9.521-3.27c-0.144-.41-0.282-0.82-0.423-1.22-4.167,1.06-8.445-.23-12.6-0.77A17.88,17.88,0,0,1,795.072,3527.85Zm43.474,0.19a30.9,30.9,0,0,0-1.477,3.45c0.656,1.12,2.192,1.55,3.412,1.84,2.1-1.52,4.02-3.28,6.081-4.86C843.879,3528.48,841.223,3528.1,838.546,3528.04Zm-16.2,2.7c-1.423.3-2.811,0.76-4.2,1.19,0.031,0.11.093,0.34,0.128,0.45,3.642,2.03,7.826,2.66,11.908,3.13,3.488,0.07,7.119.38,10.394-1.11-1.6-.67-3.5-1.06-4.56-2.56,0.055-1.29,1.117-2.32,1.44-3.57C832.781,3530.58,827.445,3530.59,822.35,3530.74Zm19.588,2.59c0.257,0.2.515,0.4,0.78,0.61-0.423.4-.846,0.79-1.279,1.18-0.01,2.02-.072,4.04-0.092,6.06a61.983,61.983,0,0,0,5.7-4.52c0.257-2.48.027-5.03,0.1-7.53C845.391,3530.5,843.68,3531.94,841.938,3533.33Zm-26.4-2.77a2.47,2.47,0,0,0-.041,1.52c0.557,0.02,1.117.03,1.677,0.05,0.093-.52.179-1.05,0.264-1.57A12.052,12.052,0,0,0,815.536,3530.56Zm-0.958,2.87c-1.667,1.86-3.388,3.69-4.979,5.61,0.5,0.6,1.619.32,2.354,0.3,1.659-2,3.051-4.22,4.549-6.34C815.825,3532.94,815.031,3532.78,814.578,3533.43Zm2.944-.33c-1.47,2.14-2.985,4.24-4.511,6.34,2.735,0.38,5.508.34,8.25,0.68,1.948,0.23,3.923.08,5.868,0.4a26.23,26.23,0,0,0,4.432.18c1.643-1.55,3.488-2.85,5.188-4.33a46.347,46.347,0,0,1-13.936-1.22A55.815,55.815,0,0,1,817.522,3533.1Zm-25.167,2.16a10.924,10.924,0,0,0-2.608,2.37c2.628-.06,5.222.48,7.851,0.45,0.007,0.25.017,0.74,0.024,0.99-2.849-.35-5.718-0.47-8.573-0.67a61.359,61.359,0,0,0-.01,7.06,30.116,30.116,0,0,1,4.834.34c4.776,0.15,9.528.7,14.3,0.95-0.024-2.23-.052-4.46-0.052-6.68-1.687-.22-3.374-0.46-5.075-0.52-1.738-.02-3.446-0.68-5.184-0.29,0-.39-0.007-0.77-0.011-1.15,2.4,0.5,4.869.33,7.274,0.79a20.6,20.6,0,0,0,3.333.07q2.067-2.325,4.126-4.66A28.858,28.858,0,0,1,792.355,3535.26Zm45.927,0.87c-0.045,2.56-.069,5.12-0.272,7.68a15.609,15.609,0,0,0,2.23-1.7c0.409-2.24.3-4.55,0.553-6.81C839.948,3535.56,839.11,3535.83,838.282,3536.13Zm-6.023,5.02a1.543,1.543,0,0,0-.34,1.35,52.391,52.391,0,0,0,.2,6.07c1.673-1.43,3.535-2.63,5.116-4.15,0.206-2.46.048-4.93,0.12-7.4C835.643,3538.38,833.966,3539.78,832.259,3541.15Zm8.689,1.5c-0.034,3.5-.093,7.01.134,10.51-0.079,2.91.354,5.79,0.227,8.7,1.759-1.07,3.175-2.62,4.947-3.68,0.128-5.22.172-10.46-.1-15.68-0.007-1.35.158-2.69,0.189-4.03C844.511,3539.82,842.8,3541.32,840.948,3542.65Zm-31.971-2.58c0.011,2.19.093,4.39,0.145,6.59,0.756,0.6,1.968.35,2.917,0.49-0.114-2.29.044-4.6-.282-6.88C810.833,3540.17,809.905,3540.11,808.977,3540.07Zm3.69,0.34a51.03,51.03,0,0,0,.488,6.93c6,0.51,12.009.94,17.987,1.73a56.782,56.782,0,0,0-.086-7.46c-2.986-.36-6.009-0.19-8.988-0.64-1.642-.19-3.3-0.03-4.937-0.29A31.716,31.716,0,0,0,812.667,3540.41Zm24.835,4.98c-0.124,4.21.192,8.4,0.154,12.61a63.394,63.394,0,0,1,.227,6.91c0.828-.68,1.632-1.39,2.474-2.04,0.079-6.45-.158-12.89-0.388-19.33C839.117,3544.12,838.3,3544.75,837.5,3545.39Zm-5.58,4.47c-0.23.02-.684,0.04-0.914,0.05-0.055,7.17.165,14.33,0.419,21.49q2.681-2.9,5.532-5.62c-0.014-4.66-.1-9.33-0.131-13.99-0.165-1.86-.209-3.72-0.195-5.58C834.949,3547.27,833.509,3548.67,831.922,3549.86Zm-41.237-3.42c-0.052,3.98.168,7.95,0.33,11.92-0.055,3.51.123,7.02,0.1,10.53,6.12,0.3,12.2,1.18,18.317,1.44a26.513,26.513,0,0,1-.278-4.43c-0.176-6.05-.282-12.09-0.265-18.15C802.831,3547.21,796.756,3546.75,790.685,3546.44Zm19.083,1.31c0.034,3.53-.172,7.06.189,10.57,0.054,4.04.01,8.08,0.092,12.12,1.072,0.08,2.144.19,3.22,0.3-0.031-3.07-.392-6.13-0.389-9.2-0.061-4.45-.12-8.91-0.075-13.37Q811.29,3547.93,809.768,3547.75Zm3.851,0.47c0.062,4.06-.192,8.13.189,12.18,0.144,3.47-.124,6.97.368,10.41,5.446,0.39,10.867,1.08,16.32,1.3,0.12-7.44-.515-14.85-0.409-22.28-1.824-.49-3.735-0.29-5.576-0.65C820.872,3548.92,817.247,3548.52,813.619,3548.22Zm15.163-31.23a3.822,3.822,0,0,1,3.741,3.4c-0.793.24-.945-0.82-1.384-1.24C830.627,3518.1,828.971,3518.23,828.782,3516.99Zm-28.36,3.15a5.078,5.078,0,0,1,4.2-1.79c-0.444,1.1-1.766.94-2.588,1.59C801.5,3520.19,800.81,3521.07,800.422,3520.14Zm28.4-1.31c1.182-.5,1.973.87,1.815,1.9A4.1,4.1,0,0,1,828.819,3518.83Zm-26.607,2.12c-0.319-1.2,1.426-1.53,2.281-1.65C804.318,3520.36,803.1,3520.71,802.212,3520.95Zm22.835,10.53c1.951,0.31,3.889-.3,5.848-0.26a1.029,1.029,0,0,1-.691.9,28.806,28.806,0,0,1-4.154.16,10.219,10.219,0,0,1-3.357-.28C823.033,3530.95,824.239,3531.46,825.047,3531.48Zm-22.708.21c2.484-.09,4.979-0.17,7.463-0.08a1.878,1.878,0,0,0-.2,1.87,22.054,22.054,0,0,1-4.491,1.32c-0.5.23-1.313-.38-0.546-0.7,1.563-.64,3.673-0.51,4.779-1.86-1.88.05-3.755,0.29-5.638,0.19A1.239,1.239,0,0,1,802.339,3531.69Zm20.268,0.85c1.65,0.07,3.168.86,4.831,0.86,0.6,0.04,1.99-.02,1.474.95-1.776.19-3.522-.42-5.243-0.79A1.232,1.232,0,0,1,822.607,3532.54ZM794.5,3549.77c1.715-.78,4.058.37,3.989,2.38,0.127,2.03-2.316,3.22-4.02,2.39C792.413,3553.87,792.451,3550.45,794.5,3549.77Zm0.4,0.76a1.763,1.763,0,0,0-.268,3.16c1.216,0.92,2.965-.17,3.144-1.55A2.113,2.113,0,0,0,794.9,3550.53Zm28.92,0.1a2.609,2.609,0,0,1,3.618,1.84c0.543,2-1.808,4.05-3.7,2.99A2.738,2.738,0,0,1,823.817,3550.63Zm0.347,0.75c-1.464.71-1.148,3.31,0.508,3.51a1.774,1.774,0,0,0,1.938-1.72C826.8,3551.94,825.3,3550.67,824.164,3551.38Zm-21.632,4.45a3.014,3.014,0,0,1,3.123.62,2.58,2.58,0,0,1-1.563,4.3,2.759,2.759,0,0,1-3.22-2.41A2.794,2.794,0,0,1,802.532,3555.83Zm0.91,0.55c-1.264.2-2.226,1.77-1.295,2.85a1.861,1.861,0,0,0,3.195-.3A1.887,1.887,0,0,0,803.442,3556.38Zm13.053-.09a2.617,2.617,0,1,1,.241,4.91A2.7,2.7,0,0,1,816.5,3556.29Zm-0.787,2.38a3.334,3.334,0,0,0,1.062,1.64,1.778,1.778,0,0,0,2.013-.32,1.885,1.885,0,0,0-.924-3.1C816.732,3556.62,816.035,3557.77,815.708,3558.67Zm-19.419,2.9a2.619,2.619,0,1,1-.258,4.88C794.038,3565.57,794.248,3562.27,796.289,3561.57Zm0.4,0.79a1.827,1.827,0,0,0-.7,3.02,1.684,1.684,0,0,0,2.821-.89A1.723,1.723,0,0,0,796.691,3562.36Zm27.758,0.89c1.814-.86,4.394.55,4.02,2.71-0.337,2.28-3.694,2.96-5,1.14A2.506,2.506,0,0,1,824.449,3563.25Zm0.639,0.69a1.77,1.77,0,0,0-1.323,2.04c0.413,1.76,3.512,1.79,3.769-.09A1.811,1.811,0,0,0,825.088,3563.94Z" transform="translate(-788 -3516)"/>
</svg>
