<svg xmlns="http://www.w3.org/2000/svg" width="66" height="70.03" viewBox="0 0 66 70.03">
  <defs>
    <style>
      .cls-1 {
        fill: #333745;
        fill-rule: evenodd;
      }
    </style>
  </defs>
  <path id="icon_" data-name="icon " class="cls-1" d="M1328.2,1861.58a28.073,28.073,0,0,1,35.48,10.44,28.226,28.226,0,0,1-6.67,37.51c2.31,3.2,4.61,6.4,6.93,9.6a14.261,14.261,0,0,1,3.2.16c1.21,0.51,1.68,1.84,2.15,2.97a29.044,29.044,0,0,1,3.49.07,34.637,34.637,0,0,1,.11,6.6c-11.46.13-22.93,0.02-34.39,0.06-10.46-.03-20.93.05-31.39-0.04a56.243,56.243,0,0,1-.04-6.36c0.96-.73,2.43-0.17,3.58-0.33,0.49-1.15,1-2.52,2.27-3.01a15.925,15.925,0,0,1,3.09-.11c2.32-3.19,4.61-6.4,6.93-9.6a28.7,28.7,0,0,1-9.63-13.5A28.174,28.174,0,0,1,1328.2,1861.58Zm-10.98,11.55c0.25,0.16.76,0.48,1.02,0.64a25.774,25.774,0,0,1,21-12.17v-1.21A27.092,27.092,0,0,0,1317.22,1873.13Zm23.46-12.75c0,0.3-.02.91-0.02,1.22a25.533,25.533,0,0,1,15.97,44.85,25.484,25.484,0,0,1-41.84-15.42,25.741,25.741,0,0,1,2.75-16.04c-0.26-.16-0.76-0.47-1.01-0.62A26.564,26.564,0,1,0,1340.68,1860.38Zm-3.91,2.85a24.123,24.123,0,1,0,15.9,3.43A24.055,24.055,0,0,0,1336.77,1863.23Zm-18.98,55.91c1.4,0,2.8-.01,4.2,0,0.19-.82.19-1.81,0.89-2.39a2.507,2.507,0,0,1,3.47.05,4.126,4.126,0,0,1,.83,2.34q12.795,0,25.58,0a4.1,4.1,0,0,1,.9-2.38,2.488,2.488,0,0,1,3.47.04,3.887,3.887,0,0,1,.82,2.34h4.23c-2.11-2.93-4.22-5.84-6.32-8.78a28.142,28.142,0,0,1-31.76.01C1322.01,1913.3,1319.88,1916.2,1317.79,1919.14Zm5.56-.12c0.82,0.08,1.64.12,2.46,0.13-0.22-.67-0.38-1.82-1.36-1.68C1323.69,1917.59,1323.63,1918.45,1323.35,1919.02Zm30.81,0.11c0.82,0.01,1.64.01,2.46-.01-0.24-.68-0.43-1.8-1.41-1.65C1354.42,1917.61,1354.38,1918.51,1354.16,1919.13Zm-42.06,3.12q27.885,0.015,55.78-.01a5.332,5.332,0,0,0-1.35-1.66,22.787,22.787,0,0,0-2.74-.06c-16.61.02-33.23-.02-49.84,0.02C1312.92,1920.41,1312.62,1921.61,1312.1,1922.25Zm-3.69,1.39v3.94h63.13v-3.94h-63.13Zm20.12-52.33a4,4,0,1,1-1.22,6.72A4.026,4.026,0,0,1,1328.53,1871.31Zm0.29,1.43a2.574,2.574,0,1,0,3.64,3A2.586,2.586,0,0,0,1328.82,1872.74Zm27.34,18.45a4,4,0,1,1-.64,6.96A4.02,4.02,0,0,1,1356.16,1891.19Zm0.82,1.2a2.576,2.576,0,1,0,3.25,3.26A2.6,2.6,0,0,0,1356.98,1892.39Zm-34.7.78a4,4,0,1,1-1.04,6.92A4.028,4.028,0,0,1,1322.28,1893.17Zm0.32,1.41a2.577,2.577,0,1,0,3.65,2.65A2.588,2.588,0,0,0,1322.6,1894.58Zm9.81,7.19a4.008,4.008,0,1,1-2.66,3.28A3.992,3.992,0,0,1,1332.41,1901.77Zm0.32,1.4a2.581,2.581,0,1,0,3.48,3.05A2.61,2.61,0,0,0,1332.73,1903.17Zm5.45-31.3a1.812,1.812,0,0,1,2.89-1.4,2.006,2.006,0,0,1,.76,1.81c0.01,3.05-.02,6.1.01,9.15a7.051,7.051,0,0,1,3.87,3.88c3.17,0.01,6.34-.03,9.5.01a1.815,1.815,0,0,1,1.78,1.77,1.792,1.792,0,0,1-1.74,1.85c-3.18.04-6.36,0-9.54,0.01a7.072,7.072,0,0,1-3.88,3.9c-0.03,3.24.06,6.47-.04,9.71a1.839,1.839,0,0,1-3.09,1.08c-0.64-.51-0.52-1.39-0.54-2.11,0.01-2.89,0-5.78.01-8.67a7.036,7.036,0,0,1-3.92-3.91c-3.26-.03-6.53.06-9.79-0.04a1.82,1.82,0,0,1-.88-3.13,2.733,2.733,0,0,1,2.05-.48c2.88,0.02,5.75,0,8.63.02a7.115,7.115,0,0,1,3.91-3.93C1338.17,1878.22,1338.14,1875.05,1338.18,1871.87Zm1.44-.64c-0.21,3.36-.07,6.73-0.09,10.1,0.24-.05.71-0.14,0.95-0.19-0.04-2.94.04-5.88-.03-8.82A1.345,1.345,0,0,0,1339.62,1871.23Zm-1.39,11.73a4.528,4.528,0,1,0,6.12,3.02A4.575,4.575,0,0,0,1338.23,1882.96Zm-13.75,3.82c-0.02.18-.05,0.55-0.07,0.74,3.21,0.16,6.43.01,9.66,0.07q-0.015-.465,0-0.93C1330.87,1886.75,1327.66,1886.51,1324.48,1886.78Zm21.15,0.77c3.4,0.03,6.81.1,10.21-.04-0.14-.2-0.44-0.58-0.59-0.78-2.46-.17-4.94-0.01-7.41-0.08C1347,1886.72,1345.78,1886.32,1345.63,1887.55Zm-6.1,5.44c0.03,3.24-.13,6.5.08,9.74,0.77,0.51.77-.47,0.85-0.9,0.05-2.91-.01-5.83.02-8.74C1340.24,1893.06,1339.77,1893.01,1339.53,1892.99Zm6.49-21.69a4.006,4.006,0,1,1-.99,6.94A4.032,4.032,0,0,1,1346.02,1871.3Zm0.32,1.41a2.576,2.576,0,1,0,3.67,2.62A2.59,2.59,0,0,0,1346.34,1872.71Zm8.96,3.51a4,4,0,1,1-1.63,6.94A4.022,4.022,0,0,1,1355.3,1876.22Zm-0.31,1.64a2.584,2.584,0,1,0,3.88,2.22A2.6,2.6,0,0,0,1354.99,1877.86Zm-10.14,23.48a4,4,0,1,1-2.5,2.11A4.023,4.023,0,0,1,1344.85,1901.34Zm-0.02,1.53a2.579,2.579,0,1,0,3.7,2.57A2.6,2.6,0,0,0,1344.83,1902.87Zm-5.86-18.03a2.506,2.506,0,1,1-.56,4.24A2.529,2.529,0,0,1,1338.97,1884.84Zm0.49,1.36c-1.31.62-.03,2.72,1.12,1.83C1341.77,1887.38,1340.54,1885.43,1339.46,1886.2Z" transform="translate(-1307 -1859)"/>
</svg>
