<svg xmlns="http://www.w3.org/2000/svg" width="49.031" height="60" viewBox="0 0 49.031 60">
  <defs>
    <style>
      .cls-1 {
        fill: #33b5f7;
        fill-rule: evenodd;
      }
    </style>
  </defs>
  <path id="Icon_" data-name="Icon " class="cls-1" d="M605.018,1749H555.993v-60h49.025v60Zm-47.4-1.62H603.4v-56.76H557.614v56.76Zm31.918-44.5c-0.419.98-.672,1.55-0.759,1.72l-2.143,4.54a6.757,6.757,0,0,0-.313.74,0.348,0.348,0,0,0,.011.33l3.992,6.81,0.019,0.05a0.446,0.446,0,0,1-.284,0l-7.631-.96a0.375,0.375,0,0,0-.36.17l-5.2,5.83c-0.027.03-.057,0.02-0.088-0.01a0.308,0.308,0,0,1-.061-0.16l-1.475-7.6a0.363,0.363,0,0,0-.209-0.25l-2.259-1.01c-0.935-.4-1.688-0.73-2.258-1.01q-0.465-.18-2.408-1.17a0.134,0.134,0,0,1-.1-0.12,0.177,0.177,0,0,1,.09-0.13l5.143-2.83c0.8-.45,1.281-0.72,1.431-0.79a0.483,0.483,0,0,0,.264-0.38l0.759-7.71a0.084,0.084,0,0,1,.034-0.09,0.135,0.135,0,0,1,.105.01l0.086,0.08,5.587,5.24a0.441,0.441,0,0,0,.437.12l7.427-1.62a0.144,0.144,0,0,1,.147.02A0.192,0.192,0,0,1,589.532,1702.88Zm-20.641,38.01h-3.579v-13.24h3.579v13.24Zm3.849,0h-2.6v-13.24h2.6v13.24Zm13.3,0h-2.6v-13.24h2.6v13.24Zm9.656,0h-2.6v-13.24h2.6v13.24Zm-15.8,0h-4.93v-13.24h4.93v13.24Zm12.222,0h-4.929v-13.24h4.929v13.24Z" transform="translate(-556 -1689)"/>
</svg>
