<svg xmlns="http://www.w3.org/2000/svg" width="60" height="41" viewBox="0 0 60 41">
  <defs>
    <style>
      .cls-1 {
        fill: #33b5f7;
        fill-rule: evenodd;
      }
    </style>
  </defs>
  <path id="Icon_" data-name="Icon " class="cls-1" d="M1314,1701.53a2.423,2.423,0,0,1,2.56-2.51q23.895-.015,47.77,0a2.494,2.494,0,0,1,2.74,2.44c0.06,4.97.01,9.94,0.03,14.9,0.63,0.01,1.28.01,1.92,0.02,0,1.39-.01,2.77.01,4.15-0.18.28-.36,0.57-0.54,0.86,0.01,0.6.01,1.21,0.02,1.81,0.5,0.01.99,0.01,1.48,0.01,0,1.53.01,3.06-.01,4.58-0.24,0-.72-0.01-0.96-0.01,0.01,3.39,0,6.79,0,10.19-4.8.02-9.62,0.01-14.43,0,0.01-1.6,0-3.2-.01-4.8-3.43.01-6.86-.01-10.3,0a9.893,9.893,0,0,1-16.92,3.41,9.931,9.931,0,0,1-16.71-2.89,9.992,9.992,0,0,1,3.33-11.43C1314,1715.35,1313.97,1708.44,1314,1701.53Zm1.16-.02c-0.05,6.67,0,13.34-.02,20.01a10.2,10.2,0,0,1,12.22,2.31,10.306,10.306,0,0,1,7.33-3.46,9.972,9.972,0,0,1,8.64,4.83,10.623,10.623,0,0,1,1.25,6.82h10c0-1.79.02-3.58,0.01-5.37,0.26-.01.78-0.01,1.04-0.02,0-.76,0-1.51.01-2.27-0.5,0-.99,0-1.47.01,0-1.42-.04-2.84.04-4.25,0.72-1.12.27-2.51,0.38-3.75,3.79-.01,7.57.01,11.36-0.01-0.01-4.83.01-9.65-.01-14.48a1.456,1.456,0,0,0-1.56-1.71q-23.91,0-47.82,0A1.272,1.272,0,0,0,1315.16,1701.51Zm40.58,16.01v2.26q6.075,0.015,12.13,0v-2.25C1363.83,1717.51,1359.79,1717.52,1355.74,1717.52Zm-0.43,3.44v2.25c4.01-.02,8.03-0.01,12.04-0.01v-2.24h-12.04Zm-27.21,3.73c0.39,0.87.79,1.73,1.16,2.62a6.349,6.349,0,0,1,5.41-3.37,6.268,6.268,0,1,1,.41,12.53,6.365,6.365,0,0,1-5.83-3.36c-0.36.88-.76,1.74-1.15,2.61a8.945,8.945,0,0,0,6.58,3.11,8.628,8.628,0,1,0-.4-17.23A8.962,8.962,0,0,0,1328.1,1724.69Zm-11.39-2.57a8.66,8.66,0,1,0,11.72,9.05,8.572,8.572,0,0,0-3.52-7.98A8.847,8.847,0,0,0,1316.71,1722.12Zm40.07,2.26c0,0.75.01,1.5,0.02,2.25q6.015-.015,12.03,0c0.01-.76.01-1.51,0.02-2.26Q1362.82,1724.385,1356.78,1724.38Zm-23.45.92a5.139,5.139,0,1,0,6.01,2.35A5.171,5.171,0,0,0,1333.33,1725.3Zm22.41,2.5c0,0.75,0,1.51.01,2.27,1.32-.01,2.64,0,3.96,0,2.72-.06,5.46.12,8.17-0.15-0.01-.71-0.01-1.41-0.01-2.11C1363.82,1727.78,1359.78,1727.79,1355.74,1727.8Zm0,3.44v2.15c4.05,0,8.09.02,12.13-.01v-2.13C1363.83,1731.22,1359.79,1731.24,1355.74,1731.24Zm0.01,3.33c0,0.75-.01,1.5-0.01,2.25,4.04,0.01,8.08.02,12.13,0,0-.71,0-1.41.01-2.12C1363.85,1734.41,1359.79,1734.64,1355.75,1734.57Zm-37.75-6.6c0.57-1.31,2.31-2.46,3.66-1.54,0.66,0.41.58,1.27,0.77,1.93-0.89-.2-1.6-1.4-2.58-0.87a5.448,5.448,0,0,0-1.23,1.79c1.08-.25,2.58-0.71,3.3.45,0.86,1.48.34,3.94-1.45,4.45a2.233,2.233,0,0,1-2.71-1.14A6.01,6.01,0,0,1,1318,1727.97Zm0.87,2.79c-0.57.51-.16,1.3-0.1,1.94,0.25,0.15.74,0.44,0.99,0.59,1.42-.43,1.54-1.92,1.25-3.16C1320.27,1730.17,1319.37,1730.06,1318.87,1730.76Zm1.69-27.51a16.172,16.172,0,0,1,4.66.09c1.51,0.89.98,2.94,1.06,4.4a2.169,2.169,0,0,1-2.37,2.39c-1.42-.12-3.29.46-4.29-0.86-0.6-1.08-.37-2.37-0.4-3.55C1319.2,1704.75,1319.48,1703.52,1320.56,1703.25Zm0.03,1.12a10.219,10.219,0,0,0,.06,4.57c1.39,0.05,2.79.05,4.19,0a8.755,8.755,0,0,0,.02-4.6C1323.44,1704.29,1322.01,1704.28,1320.59,1704.37Zm17.7-1.11a23,23,0,0,1,4.15-.06,1.974,1.974,0,0,1,1.58,2.16c-0.08,1.3.29,2.75-.39,3.94-0.92,1.22-2.62.74-3.94,0.83a2.341,2.341,0,0,1-2.54-1.27,25.968,25.968,0,0,1-.04-4.23A1.652,1.652,0,0,1,1338.29,1703.26Zm0.01,1.13a22.455,22.455,0,0,0,0,4.26c1.1,0.63,2.49.25,3.71,0.3,0.87,0.05.9-1.02,0.87-1.64-0.08-.97.23-2.07-0.34-2.92A23.1,23.1,0,0,0,1338.3,1704.39Zm8.86-1.13a21.9,21.9,0,0,1,4.13-.06c1.22,0.09,1.76,1.48,1.62,2.56-0.1,1.31.4,3.02-.81,3.96-1.18.71-2.65,0.32-3.96,0.4a2.049,2.049,0,0,1-2.21-2.39C1346.07,1706.24,1345.34,1703.95,1347.16,1703.26Zm0.02,1.13a27.986,27.986,0,0,0-.1,3.3c0.02,0.47-.02,1.3.69,1.25a21.041,21.041,0,0,0,3.46-.03c0.73-.41.47-1.29,0.54-1.97-0.08-.85.21-1.82-0.35-2.54A21.453,21.453,0,0,0,1347.18,1704.39Zm-17.81,7.6a12.051,12.051,0,0,1,4.48-.02c1.57,0.57,1.3,2.47,1.31,3.79,0.08,1.09-.09,2.58-1.34,2.93a25.382,25.382,0,0,1-3.8.07,1.709,1.709,0,0,1-1.78-1.41,26.994,26.994,0,0,1-.01-3.92A1.706,1.706,0,0,1,1329.37,1711.99Zm0.15,1a10.025,10.025,0,0,0-.03,4.59c1.41,0.07,2.83.06,4.26,0.01a15.716,15.716,0,0,0,.26-3.88c-0.11-.18-0.33-0.55-0.45-0.73C1332.21,1712.95,1330.87,1712.95,1329.52,1712.99Zm8.68-.98a13.624,13.624,0,0,1,3.83-.18,2.081,2.081,0,0,1,1.99,2.38c-0.09,1.48.49,3.55-1.11,4.42a18.672,18.672,0,0,1-4.42.09c-1.23-.15-1.57-1.55-1.43-2.59C1337.18,1714.75,1336.54,1712.68,1338.2,1712.01Zm0.12,1.24a19.937,19.937,0,0,0-.02,4.3,24.017,24.017,0,0,0,4.24,0c0.54-.73.27-1.7,0.35-2.54-0.07-.69.19-1.57-0.53-1.99C1341.03,1713,1339.56,1712.69,1338.32,1713.25Zm8.76-1.24a11.563,11.563,0,0,1,4.54-.04c1.72,0.64,1.23,2.77,1.29,4.2,0.14,1.09-.41,2.51-1.67,2.57a19.65,19.65,0,0,1-4.27-.11c-1.38-.7-0.99-2.39-1.05-3.64C1345.89,1713.91,1345.82,1712.44,1347.08,1712.01Zm0.08,1.31a22.88,22.88,0,0,0,.01,4.22,19.753,19.753,0,0,0,4.28-.02c0.52-.74.24-1.7,0.32-2.54-0.02-.72.16-1.99-0.89-1.99C1349.66,1713.06,1348.23,1712.62,1347.16,1713.32Zm-28.87,10.78a6.283,6.283,0,1,1-4.66,5.12A6.317,6.317,0,0,1,1318.29,1724.1Zm0.02,1.19a5.148,5.148,0,0,0-.01,9.83A5.143,5.143,0,1,0,1318.31,1725.29Zm14.35,2.77c1.02-.85,2.06-1.67,3.1-2.52,0.01,2.72,0,5.45,0,8.17-0.39-.01-0.77-0.02-1.15-0.04,0-1.92.02-3.84-.03-5.76-0.38.33-.75,0.67-1.13,1.02C1333.18,1728.64,1332.92,1728.35,1332.66,1728.06Zm23.36-24.8a22.768,22.768,0,0,1,4.13-.07c1.22,0.09,1.79,1.48,1.64,2.56-0.1,1.39.45,3.35-1.09,4.14-1.28.46-2.71,0.19-4.05,0.21a2.024,2.024,0,0,1-1.85-2.41C1354.92,1706.21,1354.24,1703.98,1356.02,1703.26Zm0.77,1.06c0.48,0.48.96,0.97,1.45,1.45,0.5-.48,1.01-0.96,1.52-1.45Q1358.26,1704.3,1356.79,1704.32Zm-0.83.79c0,1-.01,2,0.01,2.99,0.49-.5.97-1.01,1.46-1.52Zm3.13,1.49c0.5,0.51,1.01,1.03,1.52,1.54,0.01-1,.02-2.01.02-3.01C1360.11,1705.62,1359.6,1706.11,1359.09,1706.6Zm-2.28,2.37c0.99,0.01,2,.01,3,0-0.51-.52-1.02-1.03-1.53-1.54C1357.78,1707.94,1357.29,1708.45,1356.81,1708.97Zm-27.4-5.72a23.226,23.226,0,0,1,4.17-.05c1.2,0.12,1.68,1.49,1.58,2.54-0.06,1.44.43,3.52-1.27,4.22a15.113,15.113,0,0,1-4.25.1c-1.62-.37-1.56-2.24-1.57-3.55C1328.09,1705.35,1328.03,1703.67,1329.41,1703.25Zm0.74,1.07c0.49,0.48.98,0.97,1.47,1.46,0.5-.49,1-0.98,1.5-1.46C1332.12,1704.31,1331.14,1704.31,1330.15,1704.32Zm-0.91.75v3.07c0.55-.5,1.09-1.02,1.61-1.55C1330.32,1706.08,1329.78,1705.57,1329.24,1705.07Zm3.19,1.52c0.51,0.52,1.03,1.03,1.56,1.54,0.01-1.02.01-2.03,0.01-3.05C1333.47,1705.58,1332.95,1706.09,1332.43,1706.59Zm-2.33,2.37q1.53,0.015,3.06,0c-0.51-.52-1.02-1.03-1.54-1.54C1331.12,1707.94,1330.61,1708.45,1330.1,1708.96Zm-9.61,3.02a15.207,15.207,0,0,1,4.21-.11c1.43,0.28,1.71,1.92,1.6,3.14,0,1.28.2,3.2-1.35,3.68a19.178,19.178,0,0,1-4.48-.02c-1.33-.47-1.27-2.11-1.27-3.27C1319.19,1714.19,1319.09,1712.49,1320.49,1711.98Zm0.73,0.99c0.51,0.52,1.02,1.04,1.53,1.55l1.54-1.54C1323.26,1712.96,1322.24,1712.96,1321.22,1712.97Zm-0.84.83c-0.01,1.02-.01,2.05,0,3.07q0.8-.75,1.59-1.53C1321.45,1714.82,1320.92,1714.31,1320.38,1713.8Zm3.17,1.54c0.52,0.52,1.05,1.02,1.57,1.53,0.01-1.03.01-2.05,0-3.08C1324.59,1714.3,1324.06,1714.82,1323.55,1715.34Zm-2.28,2.28c0.99,0,1.98.01,2.97,0-0.5-.49-0.99-0.98-1.49-1.47C1322.26,1716.64,1321.76,1717.13,1321.27,1717.62Z" transform="translate(-1310 -1699)"/>
</svg>
