<svg xmlns="http://www.w3.org/2000/svg" width="40" height="37" viewBox="0 0 40 37">
  <defs>
    <style>
      .cls-1 {
        fill: #33b5f7;
        fill-rule: evenodd;
      }
    </style>
  </defs>
  <path id="Icon_" data-name="Icon " class="cls-1" d="M536.442,6086.4c-0.345-.77-0.52-1.6-0.793-2.4-0.567.67-1.082,1.38-1.61,2.08-0.89-.02-1.778-0.03-2.665-0.04,0.532,0.69,1.055,1.38,1.571,2.08-0.287.82-.591,1.64-0.885,2.46,0.858-.27,1.712-0.55,2.58-0.8,0.708,0.52,1.41,1.04,2.118,1.56,0-.86,0-1.73,0-2.59,0.737-.49,1.481-0.98,2.182-1.53A17.931,17.931,0,0,1,536.442,6086.4Zm-0.4,1.96c0,0.52-.007,1.03-0.007,1.55-0.433-.31-0.863-0.63-1.3-0.94-0.5.17-1,.33-1.5,0.49,0.17-.48.35-0.95,0.542-1.43-0.314-.42-0.625-0.85-0.944-1.27l1.586,0.03c0.316-.42.635-0.84,0.961-1.26,0.138,0.49.289,0.98,0.437,1.47,0.5,0.16,1.007.32,1.508,0.49C536.9,6087.79,536.471,6088.07,536.038,6088.36Zm14.1,3.67a5.563,5.563,0,0,0-6.824-3.03,5.417,5.417,0,0,0-2.855,2.14,5.192,5.192,0,0,0-.134,5.57,5.6,5.6,0,0,0,8.9.78A5.2,5.2,0,0,0,550.136,6092.03Zm-0.712,3.81a4.815,4.815,0,0,1-5.02,2.75,4.66,4.66,0,0,1-4.086-4.33,4.586,4.586,0,0,1,3.186-4.58,4.846,4.846,0,0,1,5.047,1.24A4.457,4.457,0,0,1,549.424,6095.84Zm-0.924-2.55a3.565,3.565,0,0,0-4.738-2.44,3.383,3.383,0,0,0-2.22,3.4A3.515,3.515,0,1,0,548.5,6093.29Zm-3.15,3.44a2.787,2.787,0,0,1-3.079-2.48,2.7,2.7,0,0,1,1.71-2.72,2.822,2.822,0,0,1,3.762,1.75A2.732,2.732,0,0,1,545.35,6096.73Zm1.4-3.7a1.183,1.183,0,0,0-1.148-1.12,1.708,1.708,0,0,0-1.78,1.91c0.139,0.71.958,0.83,1.547,1.03a4.887,4.887,0,0,1-1.209.56,4.156,4.156,0,0,0-.858-1.04,1.818,1.818,0,0,0,.063,1.3,1.561,1.561,0,0,0,2.021.01A3.247,3.247,0,0,0,546.746,6093.03Zm-0.778.83a4.191,4.191,0,0,1-1.5.02,2.939,2.939,0,0,1,.413-1.05,1.324,1.324,0,0,1,1.092-.16C545.987,6093.07,545.985,6093.46,545.968,6093.86Zm-22.693,5.62a1.5,1.5,0,0,0-.987,1.38,3.01,3.01,0,0,0,2.524,3.02,1.782,1.782,0,0,0,2.145-1.38A2.961,2.961,0,0,0,523.275,6099.48Zm2.722,3.51c-0.28.09-.557,0.18-0.83,0.28a2.834,2.834,0,0,1-2.261-2.19c0.094-.27.192-0.54,0.291-0.81C524.793,6099.38,526.926,6101.45,526,6102.99Zm12.721,4.42c-0.408-1.08-.824-2.16-1.2-3.25a3.519,3.519,0,0,1-1.851-.03,2.919,2.919,0,0,1-1.126-1.13c-4.492,2.11-9.63,2.24-14.188,4.16,0.207,0.75.591,1.61,0.112,2.34a2.612,2.612,0,0,1-1.348,1.02c0.365,1.12.815,2.2,1.2,3.31a2.8,2.8,0,0,1,1.717-.06,2.5,2.5,0,0,1,1.25,1.24c4.621-1.86,9.806-1.96,14.317-4.14a2.972,2.972,0,0,1-.377-2.18A2.439,2.439,0,0,1,538.718,6107.41Zm-2.137.93a3.654,3.654,0,0,0,0,2.2c-4.115,1.82-8.736,2-12.928,3.58a3.234,3.234,0,0,0-2.887-1.18c-0.243-.67-0.491-1.33-0.744-1.99a3.076,3.076,0,0,0,1.323-3.41c4.163-1.61,8.765-1.84,12.872-3.63a3.257,3.257,0,0,0,2.841,1.09c0.223,0.67.471,1.33,0.727,1.99A3.812,3.812,0,0,0,536.581,6108.34Zm-8.588-1.71c-1.354.59-1.461,2.37-.8,3.49,0.5,1.03,1.89,1.86,2.987,1.14C532.167,6109.82,530.484,6105.96,527.993,6106.63Zm1.593,4.16c-1.746.26-2.85-2.54-1.376-3.48C530.007,6106.89,531.16,6109.9,529.586,6110.79Zm-4.689.15a1.386,1.386,0,0,0-1.86-1.34c-1.243.57-.645,2.64,0.681,2.67A1.162,1.162,0,0,0,524.9,6110.94Zm-0.8.63v0.02l-0.012-.01a0.772,0.772,0,1,1,.37-0.65A0.756,0.756,0,0,1,524.1,6111.57Zm20.008,1.3a4.492,4.492,0,0,0-3.755-.59,4.3,4.3,0,0,0-3.025,3.13,4.176,4.176,0,0,0,1.95,4.51,4.533,4.533,0,0,0,4.636-.01A4.148,4.148,0,0,0,544.105,6112.87Zm-2.648,6.97a3.507,3.507,0,0,1-.414-6.99,3.639,3.639,0,0,1,4.188,3.29A3.585,3.585,0,0,1,541.457,6119.84Zm-0.608-6.17a2.814,2.814,0,0,0-2.007,1.97,2.742,2.742,0,0,0,1.929,3.33,2.874,2.874,0,0,0,3.621-2.14A2.839,2.839,0,0,0,540.849,6113.67Zm2.629,3.57a2.164,2.164,0,0,1-3.444.49,2.042,2.042,0,0,1,.822-3.32,2.735,2.735,0,0,1,1.851.19A1.985,1.985,0,0,1,543.478,6117.24Zm-12.817,2.23h0.73c0,0.51,0,1.03,0,1.54h-0.727C530.661,6120.5,530.661,6119.98,530.661,6119.47Zm-9.176-28.13c0.241-.01.482-0.02,0.727-0.04,0,0.4,0,.79,0,1.18-0.243-.01-0.486-0.02-0.724-0.02C521.485,6092.08,521.483,6091.71,521.485,6091.34Zm14.006,15.83a1.419,1.419,0,0,0-1.924-1.26,1.455,1.455,0,0,0,.6,2.63A1.183,1.183,0,0,0,535.491,6107.17Zm-0.715.61c-0.3.01-.606,0.01-0.9,0.01a1.252,1.252,0,0,1,0-1.28C534.642,6106.38,534.813,6107.21,534.776,6107.78Zm-13.3-18.49c-0.2-.48.452-0.43,0.715-0.6,0.007,0.4.015,0.81,0.007,1.21C521.911,6089.77,521.281,6089.79,521.473,6089.29Zm-1.5,1c0.379,0,.758.01,1.143,0.01,0,0.23-.008.47-0.008,0.7h-1.128C519.97,6090.77,519.968,6090.53,519.968,6090.29Zm2.675,0c0.377,0,.759.01,1.143,0.01,0,0.23-.007.47-0.01,0.7H522.65C522.645,6090.77,522.643,6090.53,522.643,6090.29Zm5.822,27.89h1.493c0,0.23,0,.47.013,0.71h-1.513C528.458,6118.65,528.46,6118.41,528.465,6118.18Zm3.629,0h1.5c0,0.23,0,.47.012,0.71h-1.525C532.084,6118.65,532.086,6118.41,532.094,6118.18Zm-10.618-20.7a31.294,31.294,0,0,0,7.079-7.24c2.558,2.49,5.141,4.96,7.692,7.45a31.285,31.285,0,0,1-4.557,5.26,29.211,29.211,0,0,0,5.8-2.59q1.846,4.95,3.689,9.89a37.273,37.273,0,0,1-11.77,4.25,33.273,33.273,0,0,0-9.081,3.15c-0.813-2.28-1.691-4.53-2.515-6.8a3.384,3.384,0,0,0-.674-1.28c-1.362-1.37-2.816-2.65-4.139-4.05C515.079,6102.2,518.392,6099.87,521.476,6097.48Zm6.712-5.52a31.092,31.092,0,0,1-5.664,5.6c-3.067,2.42-6.4,4.67-8.634,7.9,0.966,0.91,1.941,1.82,2.86,2.78,0.015-.27.034-0.54,0.061-0.81-0.107-.1-0.323-0.3-0.433-0.4a2.3,2.3,0,0,0,.749-1.74,3.016,3.016,0,0,0-1.109-1.84c3.286-3.61,7.894-5.84,11.024-9.61a2.3,2.3,0,0,0,3.169-.19c0.827,0.84,1.686,1.65,2.532,2.47a4.013,4.013,0,0,0-.861,1.64,3.133,3.133,0,0,0,1.418,1.93,32.811,32.811,0,0,1-4.3,4.07,3.685,3.685,0,0,0,1.282-.56,29.071,29.071,0,0,0,5.024-5.43c-2.206-2.11-4.38-4.25-6.6-6.34A1.834,1.834,0,0,0,528.188,6091.96Zm-1.043,2.85c-2.936,3.34-7.012,5.45-10.122,8.62a3.248,3.248,0,0,1,.362,3.83c0.747-.28,1.462-0.63,2.191-0.95-0.141-.52-0.532-1.11-0.151-1.62a1.32,1.32,0,0,1,1.82-.31,2.888,2.888,0,0,1,.812,1.05c1.262-.37,2.541-0.69,3.83-0.97a4.352,4.352,0,0,0,1.865-.67,29.94,29.94,0,0,0,4.427-3.94,3.047,3.047,0,0,1-.458-3.73c-0.5-.48-1.011-0.96-1.5-1.46A3.541,3.541,0,0,1,527.145,6094.81Zm2.9,9.37c-4.222,1.11-8.677,1.72-12.508,3.9,1.087,2.84,2.123,5.7,3.205,8.54a35.037,35.037,0,0,1,8.315-2.77,38.028,38.028,0,0,0,11.207-3.88c-0.987-2.88-2.13-5.71-3.159-8.58A31.165,31.165,0,0,1,530.046,6104.18Zm-10.129.76a5.049,5.049,0,0,0,.345.96,3.314,3.314,0,0,0,1.075-.2,4.025,4.025,0,0,0-.479-0.74A2.972,2.972,0,0,0,519.917,6104.94Zm7.789-8.28a1.513,1.513,0,0,1,2.143,1.8,1.33,1.33,0,0,1-2.155.16A1.24,1.24,0,0,1,527.706,6096.66Zm0.258,0.5a1,1,0,0,0,1.255,1.21A1.031,1.031,0,0,0,527.964,6097.16Zm2.7,18.88h0.724c0,0.46,0,.91,0,1.37h-0.729C530.661,6116.95,530.661,6116.5,530.664,6116.04Zm16.432-11.36c0.837-.77,1.669-1.54,2.488-2.33,0.129,1.09.292,2.18,0.368,3.27,1,0.55,2.028,1.06,3.044,1.59-1.009.5-2.05,0.94-3.086,1.39-0.216,1.1-.416,2.2-0.615,3.31-0.788-.83-1.547-1.67-2.347-2.48-1.128.19-2.262,0.32-3.393,0.48,0.557-.98,1.141-1.95,1.7-2.93-0.523-.99-1.015-1.99-1.523-2.98C544.849,6104.23,545.978,6104.43,547.1,6104.68Zm0.256,0.76a22.319,22.319,0,0,0-2.284-.4c0.321,0.65.7,1.28,0.961,1.96a14.727,14.727,0,0,1-1.112,1.99c0.781-.07,1.554-0.2,2.335-0.3,0.516,0.56,1.051,1.11,1.581,1.66,0.138-.74.282-1.49,0.4-2.23q1.054-.45,2.1-0.93c-0.649-.37-1.315-0.72-1.991-1.04-0.144-.76-0.224-1.52-0.3-2.29C548.475,6104.38,547.914,6104.91,547.352,6105.44Zm-6.248,9.11a1.06,1.06,0,0,1,.9-0.02,4.652,4.652,0,0,0,.591,3.02c-0.112.12-.333,0.36-0.445,0.49a4.136,4.136,0,0,1-.932-2.67c-0.481.29-.953,0.6-1.435,0.88C539.577,6115.33,540.428,6114.92,541.1,6114.55Z" transform="translate(-513 -6084)"/>
</svg>
