<svg xmlns="http://www.w3.org/2000/svg" width="40" height="40" viewBox="0 0 40 40">
  <defs>
    <style>
      .cls-1 {
        fill: #33b5f7;
        fill-rule: evenodd;
      }
    </style>
  </defs>
  <path id="icon_" data-name="icon " class="cls-1" d="M1385.33,6093.67a2,2,0,0,0-2,2h1.34a0.665,0.665,0,1,1,1.33,0h1.33A1.993,1.993,0,0,0,1385.33,6093.67Zm5.34,0a1.993,1.993,0,0,0-2,2H1390a0.665,0.665,0,1,1,1.33,0h1.34A2,2,0,0,0,1390.67,6093.67Zm-2.67,18a2.665,2.665,0,1,0,2.67,2.66A2.667,2.667,0,0,0,1388,6111.67Zm0,4a1.335,1.335,0,1,1,1.33-1.34A1.332,1.332,0,0,1,1388,6115.67Zm16,4V6111a10.016,10.016,0,0,0-10-10h-0.73a8.586,8.586,0,0,0,.68-0.67h0.72A3.335,3.335,0,0,0,1398,6097v-1.18a2.99,2.99,0,0,0-.01-4.98,9.991,9.991,0,0,0-19.98,0,2.994,2.994,0,0,0,1.66,5.49h0.45a7.987,7.987,0,0,0,2.61,4.67H1382a10.016,10.016,0,0,0-10,10v8.67h-4V6121h40v-1.33h-4Zm-7.33-22.67a2,2,0,0,1-1.74,1.97,7.725,7.725,0,0,0,.95-2.64h0.45c0.12,0,.23-0.02.34-0.03v0.7Zm1.33-3.67a1.673,1.673,0,0,1-1.67,1.67H1396v-3.33h0.33A1.664,1.664,0,0,1,1398,6093.33Zm-18,1.67h-0.33a1.665,1.665,0,1,1,0-3.33H1380V6095Zm-0.33-4.67a2.769,2.769,0,0,0-.3.03,8.652,8.652,0,0,1,17.26,0,2.769,2.769,0,0,0-.3-0.03h-0.45a7.992,7.992,0,0,0-15.76,0h-0.45Zm15,1.32c-4.82-.17-8-2.14-8-3.98a0.67,0.67,0,0,0-1.34,0c0,1.66-1.72,3.04-3.96,3.29A6.669,6.669,0,0,1,1394.67,6091.65Zm-13.34,3.35v-2.7a6.137,6.137,0,0,0,4.73-2.6c1.4,1.85,4.66,3.15,8.61,3.29V6095a6.646,6.646,0,0,1-1.35,4H1388v1.33h3.98a6.377,6.377,0,0,1-1.23.74A6.67,6.67,0,0,1,1381.33,6095Zm4.61,7.72a7.718,7.718,0,0,0,4.12,0l-2.06,4.12Zm0.98,4.95h-1.17l-2.67-5.34h1.17Zm4.83-5.34h1.17l-2.67,5.34h-1.17Zm-16.42,8.67v8.67h-2V6111a8.687,8.687,0,0,1,8.27-8.65l2.65,5.32h-5.58A3.337,3.337,0,0,0,1375.33,6111Zm24,8.67h-22.66V6111a2,2,0,0,1,2-2h18.66a2,2,0,0,1,2,2v8.67Zm3.34,0h-2V6111a3.337,3.337,0,0,0-3.34-3.33h-5.58l2.65-5.32a8.687,8.687,0,0,1,8.27,8.65v8.67Zm-6-6H1398v4.66h-1.33v-4.66Zm0-2.67H1398v1.33h-1.33V6111Zm6-24H1404v1.33h-1.33V6087Zm0,2.67H1404V6091h-1.33v-1.33Zm0,2.66H1404v1.34h-1.33v-1.34ZM1372,6095h1.33v1.33H1372V6095Zm0,2.67h1.33V6099H1372v-1.33Zm0,2.66h1.33v1.34H1372v-1.34Z" transform="translate(-1368 -6081)"/>
</svg>
