<svg xmlns="http://www.w3.org/2000/svg" width="40" height="38" viewBox="0 0 40 38">
  <defs>
    <style>
      .cls-1 {
        fill: #33b5f7;
        fill-rule: evenodd;
      }
    </style>
  </defs>
  <path id="Icon_" data-name="Icon " class="cls-1" d="M822.29,6084.23h1.52c0,0.28,0,.56,0,0.85h-1.527C822.285,6084.79,822.285,6084.51,822.29,6084.23Zm3.7,0h1.5c0,0.28,0,.56,0,0.85h-1.5C825.986,6084.79,825.989,6084.51,825.992,6084.23Zm-1.492,1.4c0.279,0.01.558,0.01,0.843,0.02q0,0.825,0,1.65c-0.285,0-.564.01-0.843,0.01Q824.5,6086.47,824.5,6085.63Zm3.938,6.01c0.279,0.01.559,0.01,0.84,0.02,0,0.65,0,1.29,0,1.94-0.284.01-.566,0.01-0.845,0.02Q828.436,6092.63,828.438,6091.64Zm-16.874,6.84c0.282,0,.564.01,0.848,0.01-0.008.46-.008,0.92-0.014,1.39,1.458,0.18,3.158.92,3.245,2.64-1.077.13-1.114-1.26-2.05-1.45-1.589-.74-4.062-0.18-4.423,1.77-0.126,1.32,1.323,1.91,2.349,2.24,1.268,0.43,2.712.74,3.614,1.82a2.74,2.74,0,0,1-.358,3.55,4.517,4.517,0,0,1-2.374,1.03c0,0.47,0,.93.008,1.39-0.211,0-.634.01-0.842,0.01,0-.47,0-0.93.008-1.39-1.508-.24-3.191-1.08-3.312-2.82,1.037-.15,1.093,1.12,1.886,1.47a3.5,3.5,0,0,0,4.285-.59,1.761,1.761,0,0,0-.389-2.5c-1.568-1.13-3.795-1-5.142-2.49a2.561,2.561,0,0,1,.234-3.47,4.759,4.759,0,0,1,2.438-1.22C811.567,6099.41,811.567,6098.95,811.564,6098.48Zm12.933-16.49c0.279,0.01.561,0.01,0.843,0.01,0,0.48,0,.96.006,1.43-0.285.01-.57,0.01-0.851,0.02C824.492,6082.96,824.5,6082.48,824.5,6081.99Zm-15.583,2.36c0.857-.31,1.576-1.05,2.54-1.02a4.143,4.143,0,0,1,2.512,1.31,4.675,4.675,0,0,1,2.571-1.27,5.152,5.152,0,0,1,2.816.93c-1.015,1.9-2.072,3.78-3.09,5.68a3.635,3.635,0,0,0-.251,1.57c3.53,1.03,5.59,4.42,6.989,7.61a43.232,43.232,0,0,1,3.23,13.45c0.13,0,.384.02,0.513,0.02,0,2.45.037,4.9,0.014,7.35-3.5.01-7.008,0.01-10.512-.02-3.851.12-7.693-.24-11.544-0.19a6.22,6.22,0,0,1-5.415-2.93,9.3,9.3,0,0,1-1.105-6.7,39.193,39.193,0,0,1,4.5-13.89,10.07,10.07,0,0,1,5.37-4.67,3.921,3.921,0,0,0-.3-1.79c-0.9-1.83-1.8-3.64-2.687-5.47a6.9,6.9,0,0,1,1.007-.64C807.084,6083.47,807.941,6084.22,808.914,6084.35Zm-0.288.82c-0.854-.19-1.635-0.63-2.506-0.75,0.77,1.88,1.757,3.66,2.628,5.5a21.476,21.476,0,0,0,6.551-.03c1.051-1.72,1.954-3.53,2.92-5.3a2.906,2.906,0,0,0-2.506-.11c-0.687.31-1.212,1.12-2.043,0.96-0.694-.33-1.151-1.06-1.92-1.23C810.566,6083.95,809.8,6085.38,808.626,6085.17Zm0.164,5.62c0.025,0.46.051,1.06,0.662,1.01a23.14,23.14,0,0,0,5.76-.17c0-.21,0-0.63-0.006-0.84A25.512,25.512,0,0,1,808.79,6090.79Zm-5.5,6.09a36.938,36.938,0,0,0-3.978,11.62c-0.437,2.3-.859,4.82.223,7.02a5.468,5.468,0,0,0,5.162,3.4c4.29-.07,8.581.43,12.868,0.12,0.006-1.86-.011-3.72-0.008-5.58-0.606,0-1.212,0-1.813.01,0-1.02,0-2.03,0-3.05,3.045,0.01,6.087,0,9.131,0,0.006,0.77.006,1.53,0.026,2.29,0.163-.1.329-0.19,0.5-0.28a45.263,45.263,0,0,0-2.335-10.78,20.487,20.487,0,0,0-4.056-7.28,6.29,6.29,0,0,0-3.273-1.93,26.3,26.3,0,0,1-7.62.05C805.957,6093.15,804.42,6095,803.29,6096.88Zm13.294,14.39c0,0.45,0,.9,0,1.35,2.484-.04,4.967-0.01,7.451-0.02,0-.44,0-0.88.006-1.33h-7.46Zm9.346,3.46c-0.02-.42-0.029-0.84-0.068-1.25-2.486-.03-4.976,0-7.462-0.01,0,0.32,0,.95,0,1.26m0.023,0.87c-0.006.45-.012,0.89-0.014,1.33q3.759,0.015,7.521,0c-0.006-.44-0.012-0.88-0.012-1.33m-7.507,2.2c0,0.45,0,.89.006,1.34h7.5c0-.45,0-0.89,0-1.33Q822.167,6117.8,818.408,6117.8Zm6.915-22.99h2.041c0,0.29.009,0.57,0.014,0.85H825.3C825.3,6095.38,825.312,6095.09,825.323,6094.81Zm3.115,1.82c0.209,0,.632.01,0.84,0.02,0,0.72,0,1.43,0,2.15-0.211.01-.631,0.02-0.843,0.03C828.436,6098.1,828.436,6097.36,828.438,6096.63Zm0.347,5.14c3.045,0.01,6.089,0,9.137,0-0.009.99-.012,1.99,0.073,2.97-0.446.01-.888,0.03-1.328,0.03,0,0.44-.008.89,0,1.33,0.228,0,.687-0.01.919-0.01,0,4.63.014,9.27-.006,13.9q-4.568-.015-9.134,0-0.017-6.525,0-13.03l-0.972-.03v-3.01h1.319C828.785,6103.2,828.785,6102.49,828.785,6101.77Zm0.846,0.85c-0.006.43-.009,0.87-0.006,1.3,2.509-.02,5.021.02,7.533-0.03-0.009-.41-0.012-0.83-0.012-1.25C834.64,6102.6,832.134,6102.63,829.631,6102.62Zm-1.319,2.15c0,0.44-.006.88,0,1.32,2.5,0.01,5.009,0,7.515.01,0-.45,0-0.89,0-1.33C833.315,6104.77,830.812,6104.76,828.312,6104.77Zm0.961,2.17c0,0.45.011,0.9,0.025,1.36q3.709-.015,7.417,0,0.016-.675.037-1.35C834.26,6106.94,831.765,6106.95,829.273,6106.94Zm0,2.21c0,0.42,0,.85,0,1.27h7.462c0-.42,0-0.85,0-1.27Q833.007,6109.165,829.278,6109.15Zm0.009,3.46c2.484-.01,4.967,0,7.451,0,0-.44,0-0.89,0-1.33h-7.46C829.278,6111.72,829.281,6112.17,829.287,6112.61Zm-0.009.87c0,0.42,0,.84,0,1.26,2.484-.01,4.97,0,7.457,0,0-.42,0-0.85,0-1.26h-7.462Zm0.017,2.12c-0.011.45-.019,0.89-0.022,1.34h7.473c-0.008-.45-0.017-0.89-0.022-1.34H829.3Zm-0.011,3.54c2.481,0,4.964-.01,7.448,0,0-.45.006-0.89,0.011-1.34h-7.465C829.278,6118.25,829.278,6118.69,829.284,6119.14Zm1-24.33h2.123c0,0.29.005,0.57,0.011,0.86-0.716,0-1.43,0-2.14-.01C830.285,6095.45,830.285,6095.02,830.288,6094.81Z" transform="translate(-798 -6082)"/>
</svg>
