<svg xmlns="http://www.w3.org/2000/svg" width="50.969" height="70" viewBox="0 0 50.969 70">
  <defs>
    <style>
      .cls-1 {
        fill: #333745;
        fill-rule: evenodd;
      }
    </style>
  </defs>
  <path id="icon_" data-name="icon " class="cls-1" d="M961.84,1895.67a0.935,0.935,0,0,1,1.46.35,0.9,0.9,0,0,1-1.155,1.21A0.957,0.957,0,0,1,961.84,1895.67Zm-4.394,6.27c-0.455-.26.146-0.68,0.235-0.98,0.77,0.29,1.617.9,2.466,0.48,0.548-.16,1.187-0.68,1.613-0.01C961.207,1903.11,958.537,1903.12,957.446,1901.94Zm-20.478-24.45q-0.034-8.01,0-16.02a12.376,12.376,0,0,0,2.564.42q20.976-.03,41.946-0.01c0,5.07-.019,10.14.019,15.21-12.708.03-25.419,0-38.131,0.02C941.228,1877.12,939.048,1876.88,936.968,1877.49Zm1.145-14.99q0,6.975,0,13.97,21.387-.015,42.773,0V1862.5Q959.5,1862.5,938.113,1862.5Zm20.7,36.21c0.518-.04,1.616-0.32,1.6.49C960.411,1900.37,957.716,1899.77,958.811,1898.71Zm-11.156-32.23a2.046,2.046,0,0,1,2.632,1.44c0.56,1.51.334,3.62-1.149,4.52a2.065,2.065,0,0,1-2.775-1.47C945.832,1869.44,946.08,1867.3,947.655,1866.48Zm0.783,5.06a2.788,2.788,0,0,0-.009-4.23C946.927,1868.14,946.78,1870.85,948.438,1871.54Zm7.808,23.97a0.922,0.922,0,0,1,.732,1.68C955.864,1897.89,955.012,1895.88,956.246,1895.51ZM934.04,1859.1c5.861-.19,11.732-0.03,17.6-0.08q16.232,0,32.464,0c0.35-.03.993,0.05,0.881,0.57q0.034,9.9,0,19.82c0.112,0.5-.528.55-0.859,0.54-1.8.02-3.6,0-5.4,0,0.322,0.81.608,1.64,0.856,2.48l0.535,0.28a64.6,64.6,0,0,1,4.636,14.24,6.835,6.835,0,0,1-.64,4.8,51.059,51.059,0,0,1-6.8,9.76c-0.932,1.01-1,2.45-1.422,3.7-0.856,2.82-1.579,5.71-2.695,8.44-6.008,5.85-15.846,6.97-23.174,3.02a15.471,15.471,0,0,1-4.219-3.06c-1.349-3.51-2.291-7.17-3.331-10.78a4.4,4.4,0,0,0-1.111-1.73,50.374,50.374,0,0,1-6.379-9.23,6.679,6.679,0,0,1-.754-4.63,63.269,63.269,0,0,1,3.85-12.64,5.279,5.279,0,0,1,1.355-2.27c0.277-.8.56-1.6,0.881-2.38-1.95-.03-3.907.08-5.851-0.04-0.1-.04-0.3-0.12-0.4-0.17C933.957,1872.86,934,1865.98,934.04,1859.1Zm1.114,1.05q0,9.345,0,18.67,24.355,0,48.714,0,0-9.33,0-18.67H935.154Zm5.329,22.82c0.939,0.47,1.884.93,2.829,1.39a12.382,12.382,0,0,0,4.264-2.19c-0.754-.05-1.508.09-2.259,0.04-0.945-.37-0.63-1.51-0.468-2.26-1.079.01-2.157,0-3.236,0A18.776,18.776,0,0,0,940.483,1882.97Zm5.241-1.86c0.649-.05,1.365-0.41,1.982-0.04a1.456,1.456,0,0,1,.271,2.33,12.282,12.282,0,0,1-3.134,1.63c-0.389,1.13-.984,2.18-1.337,3.32a36.291,36.291,0,0,0-1.33,7.3,2.664,2.664,0,0,0,.153,1.69,23.7,23.7,0,0,0,3.287,4.39,5.319,5.319,0,0,0,2.793,1.3c0.754-1.19,2.078-.13,3.1.08a10,10,0,0,1,2.354-1.84,29.18,29.18,0,0,0-1.858-3.76c-0.961-1.52-.77-3.36-1.107-5.06a7.782,7.782,0,0,1,4.887-8.32c1.613-.67,3.379-0.35,5.072-0.43a7.506,7.506,0,0,1,6.965,5.33c0.722,2.27.064,4.63-.162,6.92-0.653,1.86-1.839,3.47-2.52,5.33a10.472,10.472,0,0,1,2.38,1.83c1-.21,2.329-1.27,3.108-0.09a5.74,5.74,0,0,0,2.524-1.07,22.459,22.459,0,0,0,3.115-3.9,2.6,2.6,0,0,0,.63-1.72,38.372,38.372,0,0,0-1.4-8.01c-0.354-1.13-.945-2.16-1.334-3.27a14.723,14.723,0,0,1-3.073-1.59,1.44,1.44,0,0,1,.1-2.31c0.614-.49,1.416-0.08,2.1-0.05-0.172-.38-0.341-0.77-0.506-1.15q-13.3.015-26.591,0.01C946.039,1880.34,945.883,1880.72,945.724,1881.11Zm28.433-1.16c0.165,0.72.5,1.75-.341,2.2a13.366,13.366,0,0,1-2.367,0,11.432,11.432,0,0,0,4.292,2.21c0.926-.47,1.862-0.92,2.794-1.38a21.809,21.809,0,0,0-1.117-3.02C976.33,1879.95,975.245,1879.96,974.157,1879.95Zm-34.507,3.92a64.518,64.518,0,0,0-4.267,13.4,5.757,5.757,0,0,0,.776,4.34,49.32,49.32,0,0,0,6.307,8.99,4.523,4.523,0,0,1,1.132,1.97c0.917,3.32,1.871,6.62,2.975,9.88a3.2,3.2,0,0,0,1.372,1.53,20.825,20.825,0,0,0,7.576,3.48,36.744,36.744,0,0,1-6.246-10.12,29.014,29.014,0,0,1,.948-3.62,26.514,26.514,0,0,1-2.829-1.15c0.089-2.79.764-5.56,1.05-8.34a7.137,7.137,0,0,1-3.493-1.52,25.254,25.254,0,0,1-3.233-4.1,3.361,3.361,0,0,1-.77-2.28c0.366-3.62.78-7.35,2.383-10.67C942.1,1885.07,940.878,1884.47,939.65,1883.87Zm36.031,1.79c1.674,3.52,2.116,7.47,2.4,11.31a18.7,18.7,0,0,1-3.77,5.5c-0.939,1.12-2.415,1.42-3.758,1.76,0.337,2.77.935,5.53,1.079,8.32a23.733,23.733,0,0,1-2.826,1.17c0.258,1.26.929,2.5,0.862,3.79a37.434,37.434,0,0,1-6.176,9.97,19.376,19.376,0,0,0,8.7-4.49c1.352-3.47,2.252-7.12,3.306-10.69a7.241,7.241,0,0,1,1.7-2.44,50.187,50.187,0,0,0,5.947-8.8,5.88,5.88,0,0,0,.429-4.08,65.225,65.225,0,0,0-4.219-13.12C978.137,1884.47,976.909,1885.06,975.681,1885.66ZM952.912,1888a7.821,7.821,0,0,0-.716,5.57,7.217,7.217,0,0,0,1.969-.08,22.59,22.59,0,0,0,7.99-3.01c0.162,0.11.487,0.32,0.649,0.43q-0.19.465-.382,0.93c1.362,0.76,2.708,1.91,4.366,1.76a9.515,9.515,0,0,0,.136-3.38,6.513,6.513,0,0,0-4.842-5.22c-1.267.05-2.523-.1-3.787-0.15A6.193,6.193,0,0,0,952.912,1888Zm5.476,5.53c0.254,0.48.751,1.05,0,1.35-2-.84-4.118-0.12-6.17-0.03a11.938,11.938,0,0,0,1.1,2.57,17.784,17.784,0,0,1,1.464,3.06,7.879,7.879,0,0,0,3.541,3.82,3.249,3.249,0,0,0,3.3-.54,11.76,11.76,0,0,0,3.66-5.91l0.445-.36a16.514,16.514,0,0,0,1.05-2.65,5.377,5.377,0,0,1-2.736-.7c-0.9.51-1.97,0.24-2.912,0.6a0.622,0.622,0,0,1-.986-0.42c0.378-.95,1.559-0.88,2.389-1.1-0.442-.26-0.878-0.53-1.314-0.8A20.682,20.682,0,0,1,958.388,1893.53Zm-6.129,10.76a7.766,7.766,0,0,0,1.42,4.35c0.2-1.29-.373-2.8.455-3.94-0.013-.76-0.026-1.52-0.045-2.28A4.9,4.9,0,0,0,952.259,1904.29Zm12.655-1.89c-0.013.8-.035,1.61-0.086,2.42,0.117,0.1.353,0.29,0.471,0.38-0.01,1.14-.013,2.27,0,3.41a7.68,7.68,0,0,0,1.447-3.71C966.975,1903.68,965.649,1903.09,964.914,1902.4Zm-9.422,2.95c0.872,0.36,1.722.8,2.625,1.08a12.279,12.279,0,0,1,2.5.13c0.98-.38,1.947-0.8,2.911-1.21,0.105-.66.2-1.33,0.3-2-1.148,1.17-2.523,2.36-4.254,2.36-1.772.04-3.207-1.16-4.384-2.35C955.276,1904.03,955.371,1904.69,955.492,1905.35ZM968,1904.21c-0.6,2.67-.3,5.43-0.872,8.11-0.961,5.64-3.512,10.85-6.506,15.68a4.121,4.121,0,0,0,1.9-1.25,36.574,36.574,0,0,0,6.049-9.59c-0.4-1.35-.792-2.7-1.126-4.07,0.976-.5,2.011-0.87,3.032-1.27-0.417-2.7-.757-5.42-1.187-8.12C968.862,1903.86,968.42,1904.01,968,1904.21Zm-19.441,7.58c0.945,0.54,2.122.65,2.956,1.38-0.261,1.36-.713,2.66-1.082,3.98a39.705,39.705,0,0,0,5.215,8.68,5.58,5.58,0,0,0,2.737,2.14c-3.7-5.86-6.638-12.47-6.927-19.5a39.334,39.334,0,0,0-.388-4.29c-0.468-.15-0.929-0.3-1.391-0.45C949.335,1906.42,948.893,1909.1,948.562,1911.79Zm6.3-5.45c0,1.26,0,2.52.006,3.78q1.376-.615,2.775-1.17c0-.48.006-0.95,0.016-1.43C956.72,1907.14,955.788,1906.74,954.859,1906.34Zm6.481,1.18c0,0.47-.006.93-0.012,1.4,0.951,0.39,1.9.8,2.844,1.21,0-1.27,0-2.53-.006-3.8C963.23,1906.74,962.285,1907.14,961.34,1907.52Zm-2.268.16a0.7,0.7,0,0,0,.84,1.12C960.777,1908.3,959.708,1907,959.072,1907.68Zm-6.424,1.44a38.9,38.9,0,0,0,6.239,17.36c-0.019-5.58.134-11.16-.076-16.73-1.585.52-3.055,1.35-4.642,1.85a1.272,1.272,0,0,1-.538-1.16C953.306,1909.99,952.982,1909.55,952.648,1909.12Zm12.422,2.39c-1.725-.09-3.192-1.43-4.92-1.7-0.194,5.57-.047,11.15-0.073,16.73a38.837,38.837,0,0,0,6.3-17.44A6.168,6.168,0,0,0,965.07,1911.51Zm-12.317-45.02a1.916,1.916,0,0,1,2.45,1.02,4.038,4.038,0,0,1-.573,4.67,1.825,1.825,0,0,1-2.73-.43C950.805,1870.18,950.968,1867.48,952.753,1866.49Zm0.776,5.18a2.9,2.9,0,0,0,0-4.37A2.644,2.644,0,0,0,953.529,1871.67Zm-16.561-10.2a23.119,23.119,0,0,1,3.531-.12h31.173c3.414,0.05,6.834-.09,10.242.07a5.206,5.206,0,0,1,.137,1.35q-0.019,6.72,0,13.44c-0.025.61,0.13,1.66-.824,1.4-13.685.03-27.37,0-41.055,0.01a19.018,19.018,0,0,1-3.2-.13c2.08-.61,4.26-0.37,6.4-0.38,12.712-.02,25.423.01,38.131-0.02-0.038-5.07-.019-10.14-0.019-15.21q-20.971-.045-41.946.01A12.376,12.376,0,0,1,936.968,1861.47Zm4.209,5.24a1.332,1.332,0,0,1,1.82-.09c0.2,1.56.038,3.14,0.086,4.71,0.589,0.12,1.464.56,0.783,1.21a10.522,10.522,0,0,1-2.689.01c-0.681-.61.162-1.13,0.757-1.28-0.025-1.13.061-2.27-.047-3.4A5.642,5.642,0,0,1,941.177,1866.71Zm23.676-.19c1.187-.61,2.444.39,2.772,1.53,0.458,1.51.26,3.57-1.257,4.41-1.171.58-2.412-.42-2.73-1.54C963.189,1869.41,963.374,1867.39,964.853,1866.52Zm0.78,5.16a2.773,2.773,0,0,0,0-4.39A2.773,2.773,0,0,0,965.633,1871.68Zm4.575-5.26c1.232-.4,2.323.7,2.59,1.83,0.341,1.46.156,3.37-1.273,4.19a2.011,2.011,0,0,1-2.691-1.33C968.219,1869.53,968.468,1867.16,970.208,1866.42Zm0.516,5.25a2.72,2.72,0,0,0,0-4.37A2.79,2.79,0,0,0,970.724,1871.67Zm-12.877-5.17c1.212-.58,2.456.48,2.749,1.64,0.455,1.53.172,3.67-1.435,4.39-1.228.46-2.358-.66-2.638-1.78C956.071,1869.27,956.4,1867.3,957.847,1866.5Zm0.779,5.17a2.86,2.86,0,0,0,0-4.37A2.666,2.666,0,0,0,958.626,1871.67Zm16.648-5.23c1.766-.57,2.908,1.52,2.819,3.03,0.092,1.5-1.022,3.6-2.791,3.07C973.059,1871.48,973.05,1867.52,975.274,1866.44Zm0.547,5.23a2.693,2.693,0,0,0,0-4.37A2.828,2.828,0,0,0,975.821,1871.67Z" transform="translate(-934.031 -1859)"/>
</svg>
