<svg xmlns="http://www.w3.org/2000/svg" width="60" height="57" viewBox="0 0 60 57">
  <defs>
    <style>
      .cls-1 {
        fill: #40b9f7;
        fill-rule: evenodd;
      }
    </style>
  </defs>
  <path id="Icon_" data-name="Icon " class="cls-1" d="M516.3,3271.96a1.836,1.836,0,1,1-.11,3.14A1.894,1.894,0,0,1,516.3,3271.96Zm0.348,1.05c-0.023.4-.027,0.8-0.019,1.21,0.39-.02.779-0.03,1.169-0.05,0.026-.4.049-0.79,0.068-1.19C517.461,3272.97,517.053,3272.98,516.648,3273.01Zm8.077-29.84c0.371-.01.742-0.01,1.112-0.01,0.012,0.7.016,1.39,0.023,2.09h-1.146C524.718,3244.55,524.721,3243.86,524.725,3243.17Zm22.224-21.08c1.725-.42,3.4.67,5.134,0.5a20.664,20.664,0,0,1,4.161,0c1.744,0.18,3.424-.92,5.161-0.5,1.418,0.81.915,2.69,1.01,4.04,0.121,1.14-.25,2.59-1.566,2.77-1.9-.12-3.716-0.98-5.638-0.9,2.429,0.59,5.233.8,7,2.8,1.1,1.06.711,2.7,0.783,4.07a3.753,3.753,0,0,1-1,3.11c-1.229,1.42-3.257.91-4.9,1-0.045,6.69,0,13.38-.023,20.07a4.053,4.053,0,0,1-4.074-2.69,4.17,4.17,0,0,1,.2-3.52,12.56,12.56,0,0,1-1.1-1.57,17.241,17.241,0,0,1,1.142-1.71c-0.477-.25-0.953-0.5-1.434-0.75-0.041-1.13-.079-2.35.893-3.14-0.416-.28-0.832-0.54-1.244-0.81,0.2-.57,1.2-1.3.6-1.89-1.283-.94-0.643-2.65-0.81-3.99-1.638-.09-3.647.42-4.884-0.98-1.43-1.28-.95-3.36-1.022-5.06a3.416,3.416,0,0,1,1.639-2.86c1.766-1.28,3.976-1.61,6.068-1.96-0.136-.05-0.405-0.17-0.541-0.23a48.136,48.136,0,0,1-5.039,1.02c-1.309-.22-1.669-1.66-1.548-2.79C546.014,3224.77,545.526,3222.88,546.949,3222.09Zm0.147,1.1a16.183,16.183,0,0,0,.238,4.64c1.578-.31,3.144-0.68,4.73-0.94-0.159-1.04-.394-2.06-0.636-3.09A16.765,16.765,0,0,0,547.1,3223.19Zm9.81,0.62c-0.242,1.02-.473,2.04-0.632,3.08,1.578,0.26,3.141.63,4.714,0.94a14.814,14.814,0,0,0,.25-4.65A17.239,17.239,0,0,0,556.906,3223.81Zm-4.347-.17c0.257,1.24.541,2.48,0.9,3.7h1.412c0.37-1.22.635-2.46,0.9-3.7Q554.166,3223.61,552.559,3223.64Zm-4.789,7.28a2.382,2.382,0,0,0-1.287,2,13.329,13.329,0,0,0,.186,3.62c1.108,2.11,3.825,1.07,5.712,1.3,0.038,1.18-.06,2.37.084,3.54,0.628,0.96,1.328,2,.654,3.17,0.443,0.27.885,0.54,1.332,0.81-0.647.84-1.513,1.61-1.585,2.74,0.726,0.38,1.453.77,2.175,1.16a12.877,12.877,0,0,0-1.445,1.93,4.906,4.906,0,0,0,.984,1.59c-0.428.94-1.113,1.96-.587,3.02a3.458,3.458,0,0,0,1.926,2.05c0.06-6.67-.015-13.34.042-20.01,1.248-.01,2.5.04,3.749-0.01a2.273,2.273,0,0,0,2.141-2.57c-0.1-1.36.447-3.13-.859-4.07-1.751-1.46-4.146-1.74-6.337-1.87q0.034,1.3.117,2.61c0.784,0.07,1.707-.05,2.267.63a2.213,2.213,0,0,1-.9,3.66,22.669,22.669,0,0,1-4.036-.01,2.241,2.241,0,0,1-.787-3.67c0.563-.66,1.475-0.54,2.247-0.61-0.011-.88-0.011-1.75-0.015-2.62A12.237,12.237,0,0,0,547.77,3230.92Zm4.362,2.48a0.994,0.994,0,0,0,.37,1.68,13.32,13.32,0,0,0,3.568-.05c0.8-.51.45-2.07-0.579-1.89C554.394,3233.34,553.081,3232.84,552.132,3233.4Zm-11.994,10.32c0.6-.04,1.2-0.05,1.809-0.06,0.011,0.26.034,0.76,0.042,1.02-0.458.05-.92,0.1-1.381,0.14A5.665,5.665,0,0,1,540.138,3243.72Zm-29.071,6.18c0.379,0,.753-0.01,1.132-0.01q0,1.53,0,3.06h-1.135C511.071,3251.93,511.071,3250.92,511.067,3249.9Zm14.922,4.39c3.567-1.52,7.491-1.86,11.323-2.01,3.617,0.11,7.45.36,10.6,2.34a18.543,18.543,0,0,1,7.949,12.18,11.248,11.248,0,0,1-.371,6.1,2.735,2.735,0,0,1-1.721,1.36,5.624,5.624,0,0,1-4.317,4.59,5.451,5.451,0,0,1-6.5-4.69q-10.168-.03-20.343,0a6.183,6.183,0,0,1-1.793,3.44,5.458,5.458,0,0,1-7.521-.32,6.827,6.827,0,0,1-1.536-3.15q-3.293.03-6.587,0.01a2.008,2.008,0,0,1-2.089-1.38,6.694,6.694,0,0,1,3.36-6.91c2.936-1.5,6.277-1.79,9.394-2.73a7.922,7.922,0,0,0,2.24-2.36A20.83,20.83,0,0,1,525.989,3254.29Zm7.033-.59v9.04c3.9-.02,7.809.06,11.709-0.04a5.255,5.255,0,0,0-.31-1.98,22.64,22.64,0,0,0-4.067-7.1A29.024,29.024,0,0,0,533.022,3253.7Zm8.933,0.02a24.42,24.42,0,0,1,3.877,7.77,1.828,1.828,0,0,1-1.676,2.37c-8.83.04-17.664,0-26.494,0.02a6.049,6.049,0,0,0-1.918.43c-2.864.86-5.914,1.15-8.627,2.47a5.536,5.536,0,0,0-2.966,5.39,0.828,0.828,0,0,0,.992.83c2.2,0.04,4.4-.02,6.6.02a5.714,5.714,0,0,1,5.149-4.88,5.551,5.551,0,0,1,5.739,4.86q10.147,0.015,20.294,0a5.524,5.524,0,0,1,6.912-4.65,6.045,6.045,0,0,1,4.045,4.76c1.244-1.22,1.108-3.15,1.051-4.76a17.7,17.7,0,0,0-6.908-12.3A14.274,14.274,0,0,0,541.955,3253.72Zm-17.34,2.6a22.115,22.115,0,0,0-6.62,6.42c4.63,0.02,9.261-.01,13.9.01,0-2.96.015-5.92-.011-8.88A18.206,18.206,0,0,0,524.615,3256.32Zm-11.365,18.8a4.669,4.669,0,0,0,4.022,2.83,4.539,4.539,0,0,0,4.184-4.69A4.258,4.258,0,1,0,513.25,3275.12Zm33.3-5.41a4.268,4.268,0,1,0,6.042,3.54A4.273,4.273,0,0,0,546.548,3269.71Zm0.824,2.28a1.832,1.832,0,0,1,2.762,1.65,1.783,1.783,0,0,1-2.83,1.43A1.868,1.868,0,0,1,547.372,3271.99Zm0.345,0.97c0.007,0.41.019,0.83,0.034,1.24,0.408,0,.817,0,1.225-0.01-0.011-.39-0.041-0.78-0.087-1.16A9.216,9.216,0,0,0,547.717,3272.96Zm-41.644-18.05c1.056,0.01,2.111,0,3.167-.01,0.068,0.38.136,0.76,0.2,1.14-1.128.02-2.255,0.02-3.383,0.02C506.058,3255.68,506.066,3255.3,506.073,3254.91Zm4.994,6.14c0-1.16,0-2.31,0-3.47,0.28,0,.84-0.01,1.12-0.01,0.011,1.16.011,2.33,0.011,3.49C511.824,3261.06,511.442,3261.05,511.067,3261.05Zm31.425-19.61c0.382-.01.764-0.01,1.146-0.01q-0.006.765-.011,1.53c-0.375-.01-0.749-0.01-1.124-0.01C542.5,3242.45,542.5,3241.94,542.492,3241.44Zm0,3.8c0.379,0,.761-0.01,1.139-0.01,0,0.57,0,1.14,0,1.71-0.382-.01-0.76-0.01-1.143-0.01v-1.69Zm-15.659,1.15c0.742,0,1.483.01,2.229,0.02,0,0.37,0,.73,0,1.11-0.738.01-1.476,0.01-2.21,0.02C526.844,3247.15,526.84,3246.77,526.836,3246.39Zm-5.262,0c0.741,0,1.479.01,2.22,0.01,0,0.38-.007.75-0.007,1.12-0.738.01-1.472,0.01-2.2,0.02C521.577,3247.15,521.577,3246.77,521.574,3246.39Zm3.144,1.96c0.378-.01.756-0.01,1.135-0.02v2.37c-0.379-.01-0.761-0.02-1.139-0.02C524.718,3249.9,524.718,3249.12,524.718,3248.35Zm19.548-4.71c0.522-.06,1.052-0.04,1.578-0.05-0.012.41-.023,0.81-0.031,1.22H544.16C544.187,3244.41,544.221,3244.03,544.266,3243.64Zm-30.293,11.27h3.216c0.007,0.38.011,0.77,0.019,1.15H513.95C513.958,3255.68,513.965,3255.29,513.973,3254.91Z" transform="translate(-503 -3222)"/>
</svg>
