<svg xmlns="http://www.w3.org/2000/svg" width="49" height="60" viewBox="0 0 49 60">
  <defs>
    <style>
      .cls-1 {
        fill: #33b5f7;
        fill-rule: evenodd;
      }
    </style>
  </defs>
  <path id="Icon_" data-name="Icon " class="cls-1" d="M800.987,3225.39a6.327,6.327,0,0,1,8.748-4.81c3.779,1.46,5.332,7.56,1.8,10.08a32.332,32.332,0,0,0,4.8,2.08c-1.267,1.89-3.366-.23-5.1.09,0.091-.39.273-1.16,0.371-1.55-1.6.93-3.373,1.91-5.283,1.53A6.4,6.4,0,0,1,800.987,3225.39Zm4.934-3.82c-3.394.83-4.9,5.57-2.457,8.16a4.9,4.9,0,0,0,8.307-1.43C813.458,3224.69,809.616,3220.39,805.921,3221.57Zm20.932-.8c4.087-2.42,9.8,1.28,9.223,6.1-0.049,4.81-6.249,7.84-9.93,4.77C822.318,3229.19,822.766,3222.7,826.853,3220.77Zm1.448,0.87c-3.408,1-4.682,5.92-1.994,8.37,2.316,2.62,6.977,1.55,8.09-1.75C836.048,3224.58,832.017,3220.23,828.3,3221.64Zm-9.349,13.58a6.442,6.442,0,0,1,6.921-3.62c-1.477,1.79-4.115,1.76-5.613,3.61C819.931,3235.21,819.28,3235.22,818.952,3235.22Zm-22.815.95a7.072,7.072,0,0,1,6.516-4.72c-0.217,1.6-1.932,1.61-2.982,2.33-2.267,1.2-2.617,4.05-3.457,6.24-0.434,1.67-1.616,3.72-.385,5.32,1.176,1.03,2.744,1.41,4.15,2.03,0.343-.93.693-1.87,1.057-2.8-0.413-.27-1.253-0.83-1.673-1.11a6.962,6.962,0,0,1,1.435-1.16,22.748,22.748,0,0,1,.455-5.43l0.728,0.17c0.7,2.1.049,4.42,0.518,6.58a39.522,39.522,0,0,0,.174-5.75c1.463-.01,2.94-0.02,4.4-0.13a19.79,19.79,0,0,0-4.108-2.82c0.126-.33.371-0.98,0.5-1.3q1.806,1.1,3.625,2.22a39.588,39.588,0,0,1,4.353-2.22c-0.329,2.24-2.827,2.68-4.192,4.1q11.2,0.36,22.43,0a21.5,21.5,0,0,0-4.171-2.87l0.5-1.18c1.329,0.63,2.533,1.79,4.01,1.97,1.217-.58,2.358-1.3,3.52-1.97l0.518,1.19a18.414,18.414,0,0,0-4.094,2.88c1.483,0.1,2.974.13,4.472,0.16a40.575,40.575,0,0,0,.182,5.76c0.4-2.37.091-4.78,0.287-7.16,1.875,1.42,1.007,4.01,1.238,6.02,2.142,0.21,1.134,1.71-.2,2.13,0.371,0.94.749,1.89,1.12,2.83,1.806-.92,5.081-1.41,4.633-4.16a62.648,62.648,0,0,0-2.407-7.32c-0.777-2-2.891-2.7-4.717-3.28,0.056-.33.182-0.99,0.245-1.31,2.841,0.61,5.556,2.45,6.256,5.48,0.665,3.03,3.3,6.54,1.029,9.43-1.673,1.55-4.017,2-6,2.98,0.035,8.91.007,17.82,0.014,26.73a3.619,3.619,0,0,1-2.484,3.85c-1.414.42-2.673-.46-3.926-0.97-1.435.97-3.5,1.64-4.941,0.31a3.53,3.53,0,0,1-1.309-3.19c-0.007-6.73.014-13.46,0-20.19q-4.955.06-9.9-.01c-0.2,7.18.245,14.37-.105,21.55-0.714,2.89-4.262,3.17-6.292,1.52-1.434.84-3.331,1.7-4.807,0.45-1.435-.85-1.547-2.64-1.491-4.13,0.042-8.66-.042-17.32.035-25.97-2.372-1.31-6-1.59-6.851-4.66C793.744,3241.65,795.346,3238.93,796.137,3236.17Zm7.726,3c0,1.47.007,2.93,0.014,4.4,0.833,0.94,2.226,1.76,2.03,3.23,0.189,1.41-1.183,2.19-2,3.05-0.042,1.57-.042,3.13-0.042,4.7,9.742-.05,19.49-0.02,29.232-0.01-0.014-1.52-.021-3.04-0.035-4.56-0.812-.92-2.12-1.72-1.987-3.14-0.168-1.43,1.161-2.22,1.987-3.13,0.014-1.51.021-3.02,0.035-4.54Q818.478,3239.215,803.863,3239.17Zm-1.406,5.46c-0.476,1.1-.952,2.19-1.407,3.29,1.127,0.52,3.093.97,3.478-.69C805.06,3245.73,803.422,3245.28,802.457,3244.63Zm29.987,2.65c0.287,1.64,2.184,1.16,3.338,1.05-0.357-1.24-.755-2.46-1.175-3.67C833.62,3245.28,831.968,3245.75,832.444,3247.28Zm-30.057,2.07c-0.252,8.03-.581,16.07-0.168,24.09,1.448-.01,2.9-0.01,4.353.01,0.034-5.46-.126-10.93.056-16.38,0.293-.18.881-0.54,1.182-0.72,0.119,5.69.042,11.39,0.042,17.08,1.47,0,2.939.01,4.416,0.03,0.007-5.87-.112-11.74-0.056-17.61-3.205.02-6.4-.01-9.609,0.03A30.466,30.466,0,0,0,802.387,3249.35Zm32.059,6.49q-4.85.045-9.686,0.01c0,5.87-.014,11.74.007,17.6,1.456-.01,2.911-0.01,4.381,0,0.021-5.58.007-11.16,0.007-16.73l1.3-.04q0.021,8.37.007,16.76c1.434-.01,2.876,0,4.318.03-0.014-8.03.154-16.07-.028-24.1A35.078,35.078,0,0,0,834.446,3255.84Zm-32.395,18.92c0.1,1.53.112,3.94,2.218,3.9,2.072,0.09,2.443-2.29,2.428-3.89C805.144,3274.76,803.6,3274.76,802.051,3274.76Zm5.682,0.01c0.119,1.52.105,3.86,2.156,3.89,2.134,0.19,2.5-2.27,2.512-3.9C810.84,3274.75,809.287,3274.75,807.733,3274.77Zm16.894-.01c0.1,1.5.077,3.83,2.093,3.88,2.169,0.26,2.582-2.22,2.575-3.87C827.741,3274.75,826.181,3274.75,824.627,3274.76Zm5.7,0c-0.056,1.66.378,4.24,2.6,3.87,1.967-.05,1.911-2.42,2.009-3.87Q832.619,3274.745,830.324,3274.76Zm-9.889-29.16,3.485,0,3.464,0.01-18.877,3.2a0.123,0.123,0,0,1-.042-0.1v-2.66l-0.75.59a0.154,0.154,0,0,1-.084.03,0.164,0.164,0,0,1-.118-0.07l-0.346-.46a0.13,0.13,0,0,1-.023-0.08,0.147,0.147,0,0,1,.061-0.13l1.3-1.02a0.28,0.28,0,0,1,.129-0.04h0.739a0.182,0.182,0,0,1,.1.04,0.145,0.145,0,0,1,.042.11v3.69a0.145,0.145,0,0,1-.042.11,0.182,0.182,0,0,1-.1.04h-0.767A0.137,0.137,0,0,1,808.507,3248.81Zm2.158-.31a1.605,1.605,0,0,1-.442-1.08c-0.007-.21-0.011-0.39-0.011-0.55s0-.36.011-0.57a1.683,1.683,0,0,1,.21-0.76,1.309,1.309,0,0,1,.543-0.53,2.071,2.071,0,0,1,1.733,0,1.305,1.305,0,0,1,.546.53,1.683,1.683,0,0,1,.21.76c0.007,0.1.011,0.29,0.011,0.57,0,0.26,0,.45-0.011.55a1.6,1.6,0,0,1-.443,1.08A1.863,1.863,0,0,1,810.665,3248.5Zm1.568-.62a0.854,0.854,0,0,0,.14-0.49c0.007-.11.011-0.29,0.011-0.54s0-.42-0.011-0.52a0.879,0.879,0,0,0-.14-0.49,0.451,0.451,0,0,0-.392-0.18,0.56,0.56,0,0,0-.532.67c0,0.1,0,.28,0,0.52s0,0.43,0,.54a0.551,0.551,0,0,0,.532.66A0.444,0.444,0,0,0,812.233,3247.88Zm2.318,0.62a1.6,1.6,0,0,1-.442-1.08c-0.008-.21-0.011-0.39-0.011-0.55s0-.36.011-0.57a1.671,1.671,0,0,1,.21-0.76,1.309,1.309,0,0,1,.543-0.53,2.069,2.069,0,0,1,1.732,0,1.313,1.313,0,0,1,.547.53,1.67,1.67,0,0,1,.209.76q0.012,0.15.012,0.57c0,0.26,0,.45-0.012.55a1.6,1.6,0,0,1-.442,1.08A1.863,1.863,0,0,1,814.551,3248.5Zm1.568-.62a0.854,0.854,0,0,0,.14-0.49c0.007-.11.011-0.29,0.011-0.54s0-.42-0.011-0.52a0.879,0.879,0,0,0-.14-0.49,0.451,0.451,0,0,0-.392-0.18,0.56,0.56,0,0,0-.532.67c0,0.1-.006.28-0.006,0.52s0,0.43.006,0.54a0.551,0.551,0,0,0,.532.66A0.444,0.444,0,0,0,816.119,3247.88Zm2.317,0.62a1.605,1.605,0,0,1-.442-1.08c-0.007-.21-0.011-0.39-0.011-0.55s0-.36.011-0.57a1.683,1.683,0,0,1,.21-0.76,1.309,1.309,0,0,1,.543-0.53,2.071,2.071,0,0,1,1.733,0,1.305,1.305,0,0,1,.546.53,1.683,1.683,0,0,1,.21.76c0.007,0.1.011,0.29,0.011,0.57,0,0.26,0,.45-0.011.55a1.6,1.6,0,0,1-.443,1.08A1.863,1.863,0,0,1,818.436,3248.5Zm1.568-.62a0.854,0.854,0,0,0,.14-0.49c0.007-.11.011-0.29,0.011-0.54s0-.42-0.011-0.52a0.879,0.879,0,0,0-.14-0.49,0.451,0.451,0,0,0-.392-0.18,0.56,0.56,0,0,0-.532.67c0,0.1,0,.28,0,0.52s0,0.43,0,.54a0.551,0.551,0,0,0,.532.66A0.444,0.444,0,0,0,820,3247.88Zm2.318,0.62a1.6,1.6,0,0,1-.443-1.08c-0.007-.21-0.011-0.39-0.011-0.55s0-.36.011-0.57a1.683,1.683,0,0,1,.21-0.76,1.309,1.309,0,0,1,.543-0.53,2.071,2.071,0,0,1,1.733,0,1.305,1.305,0,0,1,.546.53,1.683,1.683,0,0,1,.21.76c0.007,0.1.011,0.29,0.011,0.57,0,0.26,0,.45-0.011.55a1.605,1.605,0,0,1-.442,1.08A1.863,1.863,0,0,1,822.322,3248.5Zm1.567-.62a0.847,0.847,0,0,0,.14-0.49c0.008-.11.011-0.29,0.011-0.54s0-.42-0.011-0.52a0.871,0.871,0,0,0-.14-0.49,0.449,0.449,0,0,0-.392-0.18,0.561,0.561,0,0,0-.532.67c0,0.1,0,.28,0,0.52s0,0.43,0,.54a0.552,0.552,0,0,0,.532.66A0.443,0.443,0,0,0,823.889,3247.88Zm2.318,0.62a1.605,1.605,0,0,1-.442-1.08c-0.008-.21-0.011-0.39-0.011-0.55s0-.36.011-0.57a1.683,1.683,0,0,1,.21-0.76,1.309,1.309,0,0,1,.543-0.53,2.071,2.071,0,0,1,1.733,0,1.305,1.305,0,0,1,.546.53,1.67,1.67,0,0,1,.209.76q0.012,0.15.012,0.57c0,0.26,0,.45-0.012.55a1.6,1.6,0,0,1-.442,1.08A1.863,1.863,0,0,1,826.207,3248.5Zm1.568-.62a0.854,0.854,0,0,0,.14-0.49c0.007-.11.011-0.29,0.011-0.54s0-.42-0.011-0.52a0.879,0.879,0,0,0-.14-0.49,0.451,0.451,0,0,0-.392-0.18,0.56,0.56,0,0,0-.532.67c0,0.1-.006.28-0.006,0.52s0,0.43.006,0.54a0.551,0.551,0,0,0,.532.66A0.444,0.444,0,0,0,827.775,3247.88Z" transform="translate(-794 -3220)"/>
</svg>
