<svg xmlns="http://www.w3.org/2000/svg" width="56.09" height="60" viewBox="0 0 56.09 60">
  <defs>
    <style>
      .cls-1 {
        fill: #33b5f7;
        fill-rule: evenodd;
      }
    </style>
  </defs>
  <path id="Icon_" data-name="Icon " class="cls-1" d="M1121.07,3554.66a21.638,21.638,0,0,0-12.58-3.19c-0.02-1.24.04-2.47-.02-3.71a17.387,17.387,0,0,0,3.52-3.28c2.36-.09,4.71-0.05,7.06.02a6.606,6.606,0,0,0,1.72-.16c0.01-.81.01-1.61,0.01-2.42a6.459,6.459,0,0,0,2.26-1.78,5.032,5.032,0,0,0,.29-5.27,5.353,5.353,0,0,0-3.02-2.42,18.136,18.136,0,0,0-.73-6.55,16.991,16.991,0,0,0-19.29-11.61,17.09,17.09,0,0,0-11.19,7.5,17.943,17.943,0,0,0-2.68,10.74,4.925,4.925,0,0,0,2.19,9.59c0.1-2.26.04-4.52,0.07-6.77a17.626,17.626,0,0,0-.12-2.91,5.4,5.4,0,0,0-1.21-.12,18.56,18.56,0,0,1,1-6.94,17.6,17.6,0,0,1,4.56-6.65,2.314,2.314,0,0,1,.45-0.32,16.288,16.288,0,0,1,11.55-3.4,16.048,16.048,0,0,1,11.46,6.53,16.636,16.636,0,0,1,3.04,10.78c-0.42.08-1.22-.2-1.27,0.44-0.16,1.66,0,3.34-.01,5.01,0.05,1.46-.07,2.91.03,4.37,0.56,0.01,1.13,0,1.69-.01-0.01.47-.02,0.94-0.02,1.41-2.39-.01-4.77.02-7.15,0a19.068,19.068,0,0,0,3.39-10.9,16.414,16.414,0,0,0-4.1-10.79,11.875,11.875,0,0,0-8.39-3.97,11.751,11.751,0,0,0-7.99,2.72,3.852,3.852,0,0,0-.48.27,15.834,15.834,0,0,0-5.15,11.51,18.638,18.638,0,0,0,7.46,15.29c0.26,1.2-.01,2.53.13,3.77a29.865,29.865,0,0,0-4.82.3,21.13,21.13,0,0,0-17.73,21.19c0.06,0.33-.1.88,0.33,1.03a9.041,9.041,0,0,0,1.04.04h53.56c0.32-.06.86,0.12,1.02-0.28A21,21,0,0,0,1121.07,3554.66Zm-33.3-21.38c-0.1,2.67.01,5.34-.04,8.01a4.147,4.147,0,0,1-3.97-3.76A4.01,4.01,0,0,1,1087.77,3533.28Zm31.29,8.01c-0.05-2.69,0-5.39.01-8.08a4.56,4.56,0,0,1,3.05,1.54,3.933,3.933,0,0,1,.01,4.98A4.255,4.255,0,0,1,1119.06,3541.29Zm-4.33,11.68c-1.23,3.66-2.44,7.33-3.72,10.97-1.35-1.02-2.71-2.04-4.09-3.03,0.07-1.06-.29-2.25.36-3.17,1.07-1.76,2.09-3.55,3.14-5.32A20.936,20.936,0,0,1,1114.73,3552.97Zm-22.35-27.23v-0.01a3.572,3.572,0,0,1,.35-0.49,11.68,11.68,0,0,1,8.15-6.21,11.334,11.334,0,0,1,9.43,2.56,13.8,13.8,0,0,1,4.41,7.55,13.492,13.492,0,0,0-7.08-4.54c-0.44-.08-1.11-0.32-1.28.27a5.392,5.392,0,0,1-2.85,2.88,8.63,8.63,0,0,1-6.15-.53,4.973,4.973,0,0,0-2.86-.16l-0.56.21a10.866,10.866,0,0,0-2.45,1.12C1091.75,3527.49,1092.12,3526.64,1092.38,3525.74Zm0.85,15.83a17.907,17.907,0,0,1-2.07-11.82c1.66-1.14,3.75-2.42,5.83-1.67a10.284,10.284,0,0,0,6.23.75,6.021,6.021,0,0,0,3.88-3.36,12.7,12.7,0,0,1,7.9,5.6,17.825,17.825,0,0,1-3.5,12.48c-1.74-.02-3.47.01-5.21-0.01a2.606,2.606,0,0,0-1.68-1.75,2.321,2.321,0,0,0-2.96,2.5,2.351,2.351,0,0,0,3.44,1.74,3.671,3.671,0,0,0,.53-0.46,8.958,8.958,0,0,0,.68-1.09c1.48-.02,2.96-0.03,4.44.01a15.374,15.374,0,0,1-3.51,2.97,3.1,3.1,0,0,1-.48.19,8.865,8.865,0,0,1-6.69.29A13.262,13.262,0,0,1,1093.23,3541.57Zm12.12,2.41a1.4,1.4,0,1,1-1.98-1.24A1.42,1.42,0,0,1,1105.35,3543.98Zm-6.94,8.11c0.1-1.26.01-2.53,0.06-3.79a10.156,10.156,0,0,0,9.1-.01c0.07,1.35-.1,2.71.06,4.05,0.58,0.03,1.15.05,1.73,0.06-0.98,1.59-1.91,3.22-2.85,4.84-2.33,0-4.67-.02-7.01.01-0.94-1.61-1.89-3.23-2.83-4.84C1097.21,3552.3,1098.08,3552.62,1098.41,3552.09Zm7.58,6.08c-0.01,1.97-.01,3.95-0.01,5.92-1.98.02-3.95,0-5.93,0.01-0.01-1.98-.05-3.96-0.03-5.94C1102.01,3558.17,1104,3558.17,1105.99,3558.17Zm-10.4-5.76c1.04,1.78,2.07,3.56,3.13,5.32,0.66,0.93.28,2.12,0.36,3.18-1.38.99-2.73,2.02-4.09,3.03q-1.9-5.46-3.71-10.97A21.659,21.659,0,0,1,1095.59,3552.41Zm-19.65,20.66a20.208,20.208,0,0,1,14.41-19.83c0.92,2.63,1.85,5.25,2.69,7.9a39.179,39.179,0,0,0,1.49,4.14c1.64-.88,2.99-2.2,4.56-3.19,0.15,1.02-.42,2.31.45,3.11-0.62,2.62-1.33,5.23-1.97,7.84C1090.36,3573.1,1083.15,3573.05,1075.94,3573.07Zm22.59-.01c0.69-2.58,1.27-5.2,1.98-7.78,1.12,0.02,2.23.01,3.35,0,0.68,2.59,1.33,5.19,1.98,7.78C1103.4,3573.05,1100.96,3573.07,1098.53,3573.06Zm8.27,0.01c-0.64-2.69-1.38-5.36-2.01-8.05a4.744,4.744,0,0,0,2.06-.18,18.313,18.313,0,0,0,.07-2.77c1.44,0.99,2.78,2.13,4.26,3.07,0.44,0.14.54-.41,0.66-0.69,1.25-3.74,2.56-7.47,3.78-11.21a20.2,20.2,0,0,1,12.24,10.12,20.592,20.592,0,0,1,2.22,9.71Q1118.44,3573.055,1106.8,3573.07Z" transform="translate(-1074.91 -3514)"/>
</svg>
