<svg xmlns="http://www.w3.org/2000/svg" width="60" height="57" viewBox="0 0 60 57">
  <defs>
    <style>
      .cls-1 {
        fill: #32b3f5;
        fill-rule: evenodd;
      }
    </style>
  </defs>
  <path id="Icon_" data-name="Icon " class="cls-1" d="M1109.42,1920.34h2.28c0,0.42,0,.85.01,1.28h-2.3C1109.41,1921.19,1109.41,1920.76,1109.42,1920.34Zm5.56,0h2.25v1.28h-2.26C1114.97,1921.19,1114.97,1920.77,1114.98,1920.34Zm-2.24,2.11c0.42,0,.84.01,1.26,0.02v2.48c-0.42.01-.84,0.01-1.26,0.02v-2.52Zm5.91,9.01,1.26,0.03c0,0.97,0,1.94.01,2.91l-1.27.03v-2.97Zm-25.32,10.27h1.27c-0.01.7-.01,1.39-0.02,2.09,2.18,0.27,4.74,1.38,4.87,3.96-1.62.2-1.67-1.89-3.08-2.18-2.39-1.1-6.1-.26-6.64,2.66-0.19,1.99,1.99,2.87,3.53,3.37,1.9,0.64,4.07,1.11,5.42,2.73a4.094,4.094,0,0,1-.54,5.32,6.947,6.947,0,0,1-3.56,1.55c0.01,0.69.01,1.38,0.01,2.08h-1.26c0-.69,0-1.38.01-2.07-2.26-.37-4.79-1.63-4.97-4.24,1.56-.22,1.64,1.69,2.83,2.2,2,1.06,4.95,1.04,6.43-.88a2.642,2.642,0,0,0-.58-3.75c-2.35-1.69-5.7-1.49-7.72-3.73a3.849,3.849,0,0,1,.35-5.21,7.278,7.278,0,0,1,3.66-1.83C1093.33,1943.11,1093.33,1942.42,1093.33,1941.73Zm19.41-24.74c0.41,0,.84.01,1.26,0.02,0,0.71,0,1.42.01,2.14-0.43.01-.86,0.01-1.28,0.02C1112.73,1918.45,1112.73,1917.72,1112.74,1916.99Zm-23.39,3.53c1.28-.46,2.36-1.57,3.81-1.52,1.51-.05,2.66,1.09,3.77,1.97,1.15-.87,2.35-1.88,3.86-1.91a7.7,7.7,0,0,1,4.22,1.39c-1.52,2.85-3.11,5.67-4.63,8.52a5.339,5.339,0,0,0-.38,2.35c5.3,1.56,8.39,6.64,10.49,11.43a64.856,64.856,0,0,1,4.85,20.16l0.77,0.04c0,3.67.05,7.35,0.02,11.03-5.26,0-10.52.01-15.78-.03-5.78.16-11.54-.37-17.32-0.3a9.316,9.316,0,0,1-8.13-4.39,13.984,13.984,0,0,1-1.66-10.05c1.16-7.22,3-14.5,6.75-20.83,1.87-3.11,4.54-5.92,8.06-7.01a5.993,5.993,0,0,0-.45-2.69c-1.34-2.73-2.71-5.46-4.03-8.2a11.331,11.331,0,0,1,1.51-.96C1086.6,1919.2,1087.89,1920.32,1089.35,1920.52Zm-0.43,1.23c-1.29-.28-2.46-0.94-3.76-1.13,1.15,2.83,2.63,5.5,3.94,8.26a31.767,31.767,0,0,0,9.83-.05c1.58-2.58,2.93-5.3,4.38-7.95-1.19-.39-2.58-0.91-3.76-0.17-1.03.47-1.82,1.69-3.06,1.45-1.05-.49-1.73-1.59-2.89-1.85C1091.83,1919.93,1090.68,1922.06,1088.92,1921.75Zm0.24,8.44c0.04,0.68.08,1.59,1,1.52a34.716,34.716,0,0,0,8.64-.27c0-.31,0-0.94-0.01-1.25A38.79,38.79,0,0,1,1089.16,1930.19Zm-8.25,9.13c-3.11,5.34-4.8,11.38-5.97,17.43-0.66,3.45-1.29,7.23.33,10.53a8.238,8.238,0,0,0,7.75,5.1c6.44-.11,12.88.65,19.31,0.17,0.01-2.79-.01-5.57-0.01-8.36-0.91.01-1.82,0.01-2.72,0.01-0.01-1.52-.01-3.05,0-4.56h13.7c0.01,1.14.01,2.28,0.04,3.42l0.75-.42a68.362,68.362,0,0,0-3.5-16.17c-1.43-3.93-3.19-7.86-6.09-10.91a9.527,9.527,0,0,0-4.91-2.91,39.163,39.163,0,0,1-11.44.08C1084.91,1933.72,1082.6,1936.5,1080.91,1939.32Zm19.95,21.59v2.02c3.73-.06,7.46-0.02,11.19-0.03v-1.99h-11.19Zm14.02,5.18c-0.02-.63-0.04-1.25-0.1-1.87-3.73-.05-7.46.01-11.2-0.01v1.89m0.03,1.3c0,0.67-.01,1.33-0.02,2,3.76,0.01,7.53,0,11.29,0-0.01-.67-0.02-1.33-0.02-2m-11.26,3.3c0,0.67,0,1.34.01,2.01h11.26v-2Q1109.245,1970.7,1103.6,1970.7Zm10.38-34.48h3.06c0,0.42.01,0.85,0.02,1.27h-3.12C1113.95,1937.07,1113.96,1936.64,1113.98,1936.22Zm4.67,2.72c0.31,0.01.95,0.02,1.26,0.03,0,1.08,0,2.15.01,3.23-0.32.01-.95,0.04-1.27,0.05v-3.31Zm0.52,7.72c4.57,0.01,9.14,0,13.71,0-0.01,1.48-.01,2.97.11,4.45-0.67.02-1.33,0.04-1.99,0.05-0.01.66-.01,1.33-0.01,1.99,0.34,0,1.03-.01,1.38-0.01,0.01,6.94.02,13.9-.01,20.84h-13.71q-0.015-9.765,0-19.54c-0.49-.02-0.97-0.03-1.46-0.04v-4.52h1.98v-3.22Zm1.27,1.27c-0.01.65-.01,1.3-0.01,1.95,3.77-.03,7.54.03,11.31-0.04-0.02-.62-0.02-1.25-0.02-1.88C1127.96,1947.9,1124.2,1947.95,1120.44,1947.93Zm-1.98,3.22c0,0.66-.01,1.33,0,1.99,3.75,0.01,7.51,0,11.27.01v-2C1125.97,1951.15,1122.21,1951.14,1118.46,1951.15Zm1.44,3.27c0.01,0.67.02,1.35,0.04,2.02h11.13c0.02-.67.04-1.35,0.06-2.02C1127.39,1954.41,1123.64,1954.42,1119.9,1954.42Zm0.01,3.31v1.9q5.6-.015,11.2,0v-1.9Q1125.5,1957.745,1119.91,1957.73Zm0.01,5.18c3.73-.01,7.46,0,11.19,0-0.01-.66,0-1.32,0-1.99h-11.2C1119.91,1961.59,1119.92,1962.25,1119.92,1962.91Zm-0.01,1.3c0,0.64,0,1.27.01,1.9q5.58-.015,11.19,0v-1.9Q1125.5,1964.225,1119.91,1964.21Zm0.03,3.19c-0.02.67-.03,1.33-0.04,2h11.22c-0.01-.67-0.03-1.33-0.04-2C1127.37,1967.41,1123.65,1967.41,1119.94,1967.4Zm-0.02,5.31c3.72,0,7.45-.01,11.18,0,0-.67.01-1.34,0.01-2.01h-11.2C1119.91,1971.37,1119.91,1972.04,1119.92,1972.71Zm1.51-36.49c1.05-.01,2.12-0.01,3.18-0.01,0,0.43.01,0.86,0.02,1.29q-1.62.015-3.21,0C1121.42,1937.18,1121.42,1936.54,1121.43,1936.22Z" transform="translate(-1073 -1917)"/>
</svg>
