<svg xmlns="http://www.w3.org/2000/svg" width="60" height="60" viewBox="0 0 60 60">
  <defs>
    <style>
      .cls-1 {
        fill: #33b5f7;
        fill-rule: evenodd;
      }
    </style>
  </defs>
  <path id="Icon" class="cls-1" d="M1362.04,1917.04a10.754,10.754,0,0,1,12.51-.04,51.837,51.837,0,0,1,4.25,4.01c1.93-1.83,3.62-4.08,6.15-5.13a10.542,10.542,0,0,1,11.58,2.14,10.662,10.662,0,0,1,3.05,8.47,9.793,9.793,0,0,1,7.42.48c1.88,1.16,4.41-.13,6.13,1.5,3.08,2.22,1.91,6.41,2.1,9.63,1.09,0.98,2.37,2.12,2.24,3.73a7.333,7.333,0,0,1-3.54,6.53,18.669,18.669,0,0,1-5.46,7.43c0.14,1.24.22,2.72,1.38,3.49,2.49,1.73,5.68,2.12,8.15,3.86l-0.31.62c-5.75.19-11.53,0.02-17.29,0.08a26.862,26.862,0,0,0-2.85,3,3.6,3.6,0,0,0,1.8,3.88c2.47,1.3,5.19,2.03,7.65,3.34-0.15.24-.44,0.7-0.58,0.93-7.33-.24-14.66-0.04-22-0.11-1.72-.08-3.54.38-5.16-0.39,2.43-2.14,5.98-2.34,8.55-4.29,1.08-.86,1.08-2.33,1.18-3.59-2.65-1.79-4.23-4.59-5.54-7.41a6.9,6.9,0,0,1-3.43-7.08c0.21-1.32,1.3-2.17,2.22-3.01-0.2-3.04.12-6.34,2.24-8.7a10.063,10.063,0,0,1,8.71-3.5c0.01-.5.04-1.5,0.06-2a11.553,11.553,0,0,1-7.78.17c-2.85-.92-4.69-3.43-6.8-5.39-1.35,1.31-2.6,2.73-4.07,3.91a10.555,10.555,0,0,1-13.93-1.2C1356.64,1928.12,1357.22,1920.48,1362.04,1917.04Zm-2.16,4.47a9.324,9.324,0,0,0,4.24,12.07,9.035,9.035,0,0,0,9.92-1.02c1.65-1.4,3.06-3.07,4.71-4.47,2.46,2.3,4.56,5.39,8.03,6.24a8.266,8.266,0,0,0,6.47-.91,11.831,11.831,0,0,1,5.09-6.47,9.528,9.528,0,0,0-.71-5.38,9.348,9.348,0,0,0-10.7-5.21c-3.53.79-5.56,4.01-8.15,6.23-2.49-2.13-4.42-5.17-7.75-6.09A9.282,9.282,0,0,0,1359.88,1921.51Zm38.3,7.12c-2.83,1.82-3.99,5.32-3.88,8.55a14.535,14.535,0,0,0,15.39-3.49c0.28,0.03.84,0.07,1.13,0.1a3.958,3.958,0,0,0,3.25,4.23c-0.1-2.35.32-4.78-.29-7.07-0.85-2.26-3.53-2.61-5.59-2.04C1405.31,1926.84,1401.09,1926.39,1398.18,1928.63Zm4.05,10.66c3.02,2.46,1.91,6.55,2.1,9.91a5.311,5.311,0,0,1,2.03,6.25c3.54-1.39,5.49-4.9,6.68-8.3,2.8-.58,3.54-3.86,3.16-6.29-0.29-1.18-1.56-1.48-2.6-1.61a5.172,5.172,0,0,1-3.89-3.56A19.677,19.677,0,0,1,1402.23,1939.29Zm-17.97,3.43c-0.98,1.94-.85,4.16-0.87,6.27,3.07-.08,6.23.34,9.21-0.63a16.054,16.054,0,0,0,6.76-4.21c0.45,1.12.71,2.31,1.27,3.39a8.351,8.351,0,0,0,2.29,1.58c-0.08-2.36.26-4.77-.23-7.09-0.82-2.26-3.49-2.59-5.53-2.03a15.24,15.24,0,0,0-4.57-1.89A8.4,8.4,0,0,0,1384.26,1942.72Zm9.24,6.81c-3.61,1.23-7.48,1.06-11.24.91-2.23,2.14-1.18,6.95,2.05,7.48a16.24,16.24,0,0,0,4.15,6.84,6.9,6.9,0,0,0,7.46,1.3c3.3-1.45,4.93-4.96,6.12-8.14,2.56-.29,3.36-3.22,3.24-5.38-0.18-1.59-1.74-2.12-3.07-2.43-1.73-.41-2.75-1.94-3.61-3.35A20.174,20.174,0,0,1,1393.5,1949.53Zm9.51,9.83c-0.63,1.09-1.11,2.26-1.68,3.37,4.37-.11,8.73-0.01,13.1-0.05a42.163,42.163,0,0,1-5.17-2.34c-1.34-.87-1.63-2.55-2.05-3.96A17.7,17.7,0,0,0,1403.01,1959.36Zm-12.86,8.08c-0.21,1.42-.56,2.98-1.8,3.86a34.768,34.768,0,0,1-5.26,2.42c6.76,0.02,13.52.01,20.28,0.01-1.65-.73-3.36-1.31-4.95-2.16-1.44-.87-1.89-2.6-2.19-4.14A9,9,0,0,1,1390.15,1967.44Zm-23.52-47.34c2.31-.87,4.82.25,6.36,2.02,0.94,1.1,2.45,1.96,2.87,3.35a46.465,46.465,0,0,1-3.95,3.99,5.488,5.488,0,0,1-7.43-.36C1361.65,1926.46,1362.96,1921.22,1366.63,1920.1Zm-2.6,4.96c-0.29,3.04,3.36,5.62,6.13,4.21,1.69-.99,2.88-2.62,4.3-3.96-1.46-1.41-2.68-3.17-4.53-4.1C1367.29,1920.04,1364.21,1922.33,1364.03,1925.06Zm22.43-4.53c3.28-2.08,8.16.57,8.17,4.45a5.515,5.515,0,0,1-6.65,5.65c-2.8-.74-4.33-3.47-6.47-5.19A29.482,29.482,0,0,1,1386.46,1920.53Zm0.87,0.82a30.267,30.267,0,0,0-4.19,3.9c1.41,1.45,2.66,3.16,4.49,4.1a4.41,4.41,0,0,0,5.9-3.81C1393.85,1922.46,1390.11,1919.81,1387.33,1921.35Z" transform="translate(-1358 -1915)"/>
</svg>
