<svg xmlns="http://www.w3.org/2000/svg" width="40" height="40" viewBox="0 0 40 40">
  <defs>
    <style>
      .cls-1 {
        fill: #33b5f7;
        fill-rule: evenodd;
      }
    </style>
  </defs>
  <path id="Icon" class="cls-1" d="M1085.69,6082.36a7.164,7.164,0,0,1,8.34-.03,32.592,32.592,0,0,1,2.83,2.68c1.3-1.22,2.42-2.72,4.11-3.43a7.052,7.052,0,0,1,7.72,1.43,7.125,7.125,0,0,1,2.03,5.65,6.538,6.538,0,0,1,4.95.32c1.25,0.78,2.94-.08,4.08,1,2.06,1.48,1.28,4.27,1.4,6.42,0.73,0.65,1.58,1.41,1.5,2.49a4.9,4.9,0,0,1-2.36,4.35,12.458,12.458,0,0,1-3.65,4.95,2.95,2.95,0,0,0,.93,2.33c1.66,1.15,3.79,1.41,5.43,2.57l-0.2.42c-3.84.12-7.69,0.01-11.54,0.05a18.836,18.836,0,0,0-1.9,2,2.438,2.438,0,0,0,1.21,2.59c1.64,0.86,3.45,1.35,5.1,2.23-0.1.15-.29,0.46-0.39,0.62-4.88-.17-9.78-0.03-14.66-0.08-1.15-.05-2.37.25-3.45-0.26,1.62-1.43,3.99-1.56,5.7-2.86a3.1,3.1,0,0,0,.79-2.39,11.628,11.628,0,0,1-3.7-4.94,4.628,4.628,0,0,1-2.28-4.73,3.725,3.725,0,0,1,1.48-2c-0.13-2.02.08-4.23,1.49-5.8a6.741,6.741,0,0,1,5.81-2.34c0.01-.33.03-0.99,0.04-1.33a7.65,7.65,0,0,1-5.19.12c-1.9-.62-3.12-2.29-4.53-3.59-0.9.87-1.73,1.82-2.71,2.6A6.93,6.93,0,1,1,1085.69,6082.36Zm-1.43,2.98a6.214,6.214,0,0,0,2.82,8.05,6.042,6.042,0,0,0,6.61-.68c1.1-.94,2.04-2.05,3.14-2.99,1.65,1.54,3.04,3.6,5.36,4.16a5.459,5.459,0,0,0,4.31-.6,7.934,7.934,0,0,1,3.4-4.32,6.369,6.369,0,0,0-.48-3.58,6.215,6.215,0,0,0-7.13-3.47c-2.36.52-3.71,2.67-5.44,4.15-1.65-1.42-2.95-3.45-5.16-4.06A6.179,6.179,0,0,0,1084.26,6085.34Zm25.53,4.75a6.4,6.4,0,0,0-2.59,5.69,9.692,9.692,0,0,0,10.26-2.32c0.19,0.02.56,0.05,0.75,0.06a2.642,2.642,0,0,0,2.17,2.82c-0.07-1.56.22-3.18-.2-4.71-0.56-1.5-2.34-1.74-3.72-1.36A5.694,5.694,0,0,0,1109.79,6090.09Zm2.69,7.1c2.02,1.64,1.28,4.37,1.4,6.61a3.527,3.527,0,0,1,1.36,4.17c2.36-.93,3.66-3.27,4.46-5.54,1.86-.38,2.35-2.57,2.1-4.19a1.781,1.781,0,0,0-1.74-1.07,3.428,3.428,0,0,1-2.58-2.38A13.173,13.173,0,0,1,1112.48,6097.19Zm-11.97,2.29a9.393,9.393,0,0,0-.59,4.18c2.05-.05,4.16.22,6.15-0.42a10.646,10.646,0,0,0,4.5-2.8c0.31,0.74.48,1.54,0.85,2.25a5.656,5.656,0,0,0,1.53,1.06,27.65,27.65,0,0,0-.16-4.73c-0.54-1.51-2.32-1.73-3.68-1.35a10.044,10.044,0,0,0-3.05-1.26A5.579,5.579,0,0,0,1100.51,6099.48Zm6.16,4.54a20.357,20.357,0,0,1-7.5.6c-1.48,1.44-.79,4.64,1.37,4.99a10.726,10.726,0,0,0,2.77,4.56,4.585,4.585,0,0,0,4.97.87c2.2-.97,3.29-3.31,4.08-5.43,1.7-.19,2.24-2.14,2.16-3.58-0.12-1.06-1.16-1.41-2.05-1.63a4.206,4.206,0,0,1-2.4-2.23A13.055,13.055,0,0,1,1106.67,6104.02Zm6.34,6.56c-0.42.72-.74,1.5-1.13,2.24,2.92-.07,5.83,0,8.74-0.03a26.694,26.694,0,0,1-3.44-1.57c-0.9-.57-1.09-1.69-1.37-2.64A11.811,11.811,0,0,0,1113.01,6110.58Zm-8.58,5.38a3.617,3.617,0,0,1-1.2,2.58,24.634,24.634,0,0,1-3.5,1.61c4.5,0.01,9.01,0,13.51,0-1.09-.48-2.23-0.87-3.29-1.44a3.83,3.83,0,0,1-1.46-2.76A6.021,6.021,0,0,1,1104.43,6115.96Zm-15.68-31.56a3.936,3.936,0,0,1,4.24,1.35c0.63,0.73,1.64,1.3,1.92,2.23a33.008,33.008,0,0,1-2.63,2.66A3.647,3.647,0,1,1,1088.75,6084.4Zm-1.73,3.31a2.956,2.956,0,0,0,4.08,2.81,17.952,17.952,0,0,0,2.87-2.64,13.3,13.3,0,0,0-3.02-2.74A2.968,2.968,0,0,0,1087.02,6087.71Zm14.95-3.02a3.648,3.648,0,1,1,1.02,6.73c-1.87-.49-2.89-2.31-4.32-3.46A19.266,19.266,0,0,1,1101.97,6084.69Zm0.58,0.54a19.66,19.66,0,0,0-2.79,2.61,12.914,12.914,0,0,0,2.99,2.73A2.905,2.905,0,1,0,1102.55,6085.23Z" transform="translate(-1083 -6081)"/>
</svg>
